<svg xmlns="http://www.w3.org/2000/svg" width="39.5" height="39.5" viewBox="0 0 39.5 39.5">
    <path id="prefix__place_image" fill="#324657" d="M8349.585-6684.875a2.087 2.087 0 0 0 2.089 2.095 2.094 2.094 0 0 0 2.095-2.092 2.093 2.093 0 0 0-2.091-2.094 2.088 2.088 0 0 0-2.093 2.092zm7.593 12.273h1.5v-9.029l-6.02 4.515-7.524-6.019-4.514 4.515v6.018h16.553zm3.009-18.057h-21.067a1.5 1.5 0 0 0-1.5 1.5v18.058a1.505 1.505 0 0 0 1.5 1.5h21.066a1.506 1.506 0 0 0 1.5-1.5v-18.058a1.505 1.505 0 0 0-1.499-1.5zm0 19.562h-21.067v-18.058h21.066zm3.937 8.252h-3.7v2.468h3.7zm-6.163 0h-3.7v2.468h3.7zm-6.162 0h-3.7v2.468h3.7zm-6.162 0h-3.7v2.468h3.7zm-6.162 0h-3.7v2.468h3.7zm-5.623-.207a2.448 2.448 0 0 1-1.446-1.868l-2.44.39a4.919 4.919 0 0 0 2.894 3.739zm35.553-2.262v-.044l-2.47.044a2.466 2.466 0 0 1-1.132 2.076l1.342 2.072a4.924 4.924 0 0 0 2.255-4.147zm-37.03-5.571h-2.47v3.7h2.47zm37.03-.635h-2.47v3.7h2.47zm-37.03-5.527h-2.47v3.7h2.47zm37.03-.635h-2.47v3.7h2.47zm-37.03-5.526h-2.47v3.7h2.47zm37.03-.635h-2.47v3.7h2.47zm-37.03-5.528h-2.47v3.7h2.47zm37.03-.635h-2.47v3.7h2.47zm-37.03-4.932a2.417 2.417 0 0 1 .031-.4l-2.439-.392a5.008 5.008 0 0 0-.062.787v3.1h2.47zm37.03 0a4.937 4.937 0 0 0-.269-1.608l-2.334.8a2.485 2.485 0 0 1 .133.8v2.467h2.47zm-34.562-2.468h.938v-2.469h-.938a4.929 4.929 0 0 0-3.347 1.309l1.674 1.814a2.464 2.464 0 0 1 1.671-.655zm32.3-1.68a4.944 4.944 0 0 0-2.68-.789h-1.573v2.469h1.573a2.454 2.454 0 0 1 1.338.395zm-6.718-.789h-3.7v2.469h3.7zm-6.163 0h-3.7v2.469h3.7zm-6.161 0h-3.7v2.469h3.7zm-6.164 0h-3.7v2.469h3.7z" data-name="place image" transform="translate(-8329.903 6699.876)"/>
</svg>
