<svg xmlns="http://www.w3.org/2000/svg" width="17.263" height="17.263" viewBox="0 0 17.263 17.263">
    <defs>
        <style>
            .prefix__cls-1{fill:#4d4d4d}
        </style>
    </defs>
    <g id="prefix__Group_1775" data-name="Group 1775" transform="translate(-1245.576 -218.817)">
        <path id="prefix__Path_2953" d="M6390.281-4898.438a8.6 8.6 0 0 0 .632-3.248 8.6 8.6 0 0 0-.632-3.248 8.581 8.581 0 0 0-1.9-2.856 8.591 8.591 0 0 0-2.855-1.9 8.607 8.607 0 0 0-3.248-.632 8.6 8.6 0 0 0-3.248.632 8.593 8.593 0 0 0-2.856 1.9 8.579 8.579 0 0 0-1.9 2.856 8.6 8.6 0 0 0-.632 3.248 8.6 8.6 0 0 0 .632 3.248 8.577 8.577 0 0 0 1.9 2.855 8.586 8.586 0 0 0 2.856 1.9 8.6 8.6 0 0 0 3.248.632 8.607 8.607 0 0 0 3.248-.632 8.584 8.584 0 0 0 2.855-1.9 8.579 8.579 0 0 0 1.9-2.855zm-12.918 1.67a6.964 6.964 0 0 1 0-9.837 6.964 6.964 0 0 1 9.838 0 6.964 6.964 0 0 1 0 9.837 6.964 6.964 0 0 1-9.839 0z" class="prefix__cls-1" data-name="Path 2953" transform="translate(-5128.074 5129.135)"/>
        <path id="prefix__Path_2954" d="M6394.02-4894.219a.5.5 0 0 0 .144-.349v-.395a.494.494 0 0 0-.493-.494h-3.777v-3.777a.493.493 0 0 0-.494-.493h-.394a.494.494 0 0 0-.494.493v3.777h-3.777a.493.493 0 0 0-.493.494v.395a.493.493 0 0 0 .145.349.491.491 0 0 0 .348.145h3.777v3.776a.491.491 0 0 0 .145.35.491.491 0 0 0 .349.145h.394a.493.493 0 0 0 .349-.145.493.493 0 0 0 .145-.35v-3.776h3.777a.493.493 0 0 0 .349-.145z" class="prefix__cls-1" data-name="Path 2954" transform="translate(-5134.996 5122.214)"/>
    </g>
</svg>
