<svg xmlns="http://www.w3.org/2000/svg" width="22.599" height="27.021" viewBox="0 0 22.599 27.021">
    <defs>
        <style>
            .prefix__cls-1{fill:#494949}
        </style>
    </defs>
    <g id="prefix__Group_1766" data-name="Group 1766" transform="translate(-950.822 -416.193)">
        <path id="prefix__Path_2519" d="M9324.682-6898.064l-4.576-4.577a2.985 2.985 0 0 0-2.118-.876h-9.216a2.177 2.177 0 0 0-2.171 2.17v19.169a2.177 2.177 0 0 0 2.171 2.169h5.85a8.238 8.238 0 0 1-.784-3.521 8.338 8.338 0 0 1 8.328-8.328 8.3 8.3 0 0 1 3.393.724v-4.813a2.957 2.957 0 0 0-.877-2.117zm-4.345 1.486a1.7 1.7 0 0 1-1.7-1.7v-4.179l5.879 5.879z" class="prefix__cls-1" data-name="Path 2519" transform="translate(-8355.778 7319.711)"/>
        <path id="prefix__Path_2520" d="M9347.143-6854.164h-2.185v-2.182a.886.886 0 0 0-.887-.886.888.888 0 0 0-.887.887v2.183H9341a.886.886 0 0 0-.886.887.886.886 0 0 0 .886.886h2.183v2.183a.888.888 0 0 0 .887.886.886.886 0 0 0 .887-.886v-2.184h2.185a.886.886 0 0 0 .886-.887.885.885 0 0 0-.885-.887z" class="prefix__cls-1" data-name="Path 2520" transform="translate(-8377.687 7289.457)"/>
        <path id="prefix__Path_2521" d="M9333.288-6864.06a7.036 7.036 0 0 0 0 9.946 7.034 7.034 0 0 0 9.95 0 7.033 7.033 0 0 0 0-9.946 7.034 7.034 0 0 0-9.95 0zm8.837 8.836a5.468 5.468 0 0 1-7.724 0 5.469 5.469 0 0 1 0-7.725 5.47 5.47 0 0 1 7.727 0 5.473 5.473 0 0 1-.003 7.725z" class="prefix__cls-1" data-name="Path 2521" transform="translate(-8371.877 7295.267)"/>
    </g>
</svg>
