<svg xmlns="http://www.w3.org/2000/svg" width="139.598" height="100.669" viewBox="0 0 139.598 100.669">
    <defs>
        <style>
            .prefix__cls-1{fill:#d6ded9}.prefix__cls-1,.prefix__cls-10,.prefix__cls-11,.prefix__cls-12,.prefix__cls-13,.prefix__cls-3,.prefix__cls-5,.prefix__cls-8,.prefix__cls-9{fill-rule:evenodd}.prefix__cls-3,.prefix__cls-4{fill:#fff}.prefix__cls-5{fill:#e8eee8}.prefix__cls-8{fill:#ffc748}.prefix__cls-9{fill:#4a3c48}.prefix__cls-10{fill:#5f6e92}.prefix__cls-11{fill:#7381a4}.prefix__cls-12{fill:#515e80}.prefix__cls-13,.prefix__cls-15{fill:#eaad3b}
        </style>
    </defs>
    <g id="prefix__Group_1882" data-name="Group 1882">
        <g id="prefix__Group_1878" data-name="Group 1878" transform="translate(70.08 3.484)">
            <path id="prefix__Path_3805" d="M-2893.405-11798.967h.523a9.788 9.788 0 0 0 2.58-.418 9.793 9.793 0 0 0 6.539-12.209 9.793 9.793 0 0 0-12.209-6.539 9.8 9.8 0 0 0-2.379 1.082l-.029.02c-.138.087-.273.177-.406.271l-13.372 8.934a4.685 4.685 0 0 0-2.377 5.539 4.684 4.684 0 0 0 5.048 3.294z" class="prefix__cls-1" data-name="Path 3805" transform="translate(2935.865 11818.555)"/>
            <path id="prefix__Path_3806" d="M-2926.9-11786.729H-2926.551a6.482 6.482 0 0 0 1.725-.279 6.548 6.548 0 0 0 4.373-8.164 6.549 6.549 0 0 0-8.164-4.372 6.5 6.5 0 0 0-1.591.724l-.02.012c-.092.059-.182.119-.271.182l-8.941 5.974a3.132 3.132 0 0 0-1.59 3.7 3.133 3.133 0 0 0 3.376 2.2z" class="prefix__cls-1" data-name="Path 3806" transform="translate(2953.13 11806.32)"/>
            <path id="prefix__Path_3807" d="M-2849.278-11786.729H-2848.929a6.485 6.485 0 0 0 1.725-.279 6.549 6.549 0 0 0 4.373-8.164 6.549 6.549 0 0 0-8.164-4.372 6.5 6.5 0 0 0-1.591.724l-.02.012q-.138.088-.271.182l-8.942 5.974a3.133 3.133 0 0 0-1.59 3.7 3.133 3.133 0 0 0 3.376 2.2z" class="prefix__cls-1" data-name="Path 3807" transform="translate(2902.419 11806.32)"/>
            <path id="prefix__Path_3808" d="M-2965.66-11779.376h.245a4.6 4.6 0 0 0 1.212-.2 4.6 4.6 0 0 0 3.07-5.732 4.6 4.6 0 0 0-5.733-3.07 4.56 4.56 0 0 0-1.117.508l-.013.009c-.064.041-.128.083-.19.127l-6.279 4.194a2.2 2.2 0 0 0-1.116 2.6 2.2 2.2 0 0 0 2.37 1.547z" class="prefix__cls-1" data-name="Path 3808" transform="translate(2975.676 11798.968)"/>
            <path id="prefix__Path_3809" d="M-2811.446-11779.376h.246a4.6 4.6 0 0 0 1.211-.2 4.6 4.6 0 0 0 3.07-5.732 4.6 4.6 0 0 0-5.733-3.07 4.562 4.562 0 0 0-1.117.508l-.013.009c-.065.041-.128.083-.19.127l-6.279 4.194a2.2 2.2 0 0 0-1.116 2.6 2.2 2.2 0 0 0 2.37 1.547z" class="prefix__cls-1" data-name="Path 3809" transform="translate(2874.929 11798.968)"/>
            <path id="prefix__Rectangle_1305" fill="#d6ded9" d="M0 0H52.835V2.993H0z" data-name="Rectangle 1305" transform="translate(6.872 16.593)"/>
        </g>
        <g id="prefix__Group_1879" data-name="Group 1879" transform="translate(103.369 27.174)">
            <path id="prefix__Path_3810" d="M-2841.484-11741.135h.242a4.49 4.49 0 0 0 1.2-.193 4.545 4.545 0 0 0 3.035-5.665 4.546 4.546 0 0 0-5.666-3.035 4.585 4.585 0 0 0-1.1.5l-.013.008c-.064.041-.127.083-.188.126l-6.205 4.146a2.174 2.174 0 0 0-1.1 2.57 2.174 2.174 0 0 0 2.342 1.528z" class="prefix__cls-3" data-name="Path 3810" transform="translate(2861.186 11750.224)"/>
            <path id="prefix__Path_3811" d="M-2857.026-11735.455h.162a3.051 3.051 0 0 0 .8-.13 3.039 3.039 0 0 0 2.029-3.788 3.039 3.039 0 0 0-3.789-2.029 3 3 0 0 0-.738.336l-.009.007c-.043.027-.084.055-.126.084l-4.149 2.771a1.453 1.453 0 0 0-.738 1.719 1.453 1.453 0 0 0 1.566 1.022z" class="prefix__cls-3" data-name="Path 3811" transform="translate(2869.197 11744.546)"/>
            <path id="prefix__Path_3812" d="M-2821.008-11735.455h.162a3.052 3.052 0 0 0 .8-.13 3.039 3.039 0 0 0 2.029-3.788 3.039 3.039 0 0 0-3.788-2.029 3 3 0 0 0-.738.336l-.009.007c-.043.027-.084.055-.126.084l-4.149 2.771a1.454 1.454 0 0 0-.737 1.719 1.454 1.454 0 0 0 1.566 1.022z" class="prefix__cls-3" data-name="Path 3812" transform="translate(2845.666 11744.546)"/>
            <path id="prefix__Path_3813" d="M-2875.011-11732.043h.114a2.129 2.129 0 0 0 .562-.091 2.133 2.133 0 0 0 1.425-2.66 2.134 2.134 0 0 0-2.66-1.425 2.15 2.15 0 0 0-.518.235h-.006c-.03.02-.06.039-.088.061l-2.914 1.945a1.021 1.021 0 0 0-.518 1.207 1.02 1.02 0 0 0 1.1.718z" class="prefix__cls-3" data-name="Path 3813" transform="translate(2879.659 11741.135)"/>
            <path id="prefix__Path_3814" d="M-2803.454-11732.043h.114a2.133 2.133 0 0 0 .562-.091 2.133 2.133 0 0 0 1.425-2.66 2.134 2.134 0 0 0-2.66-1.425 2.154 2.154 0 0 0-.518.235h-.006c-.03.02-.06.039-.088.061l-2.914 1.945a1.021 1.021 0 0 0-.518 1.207 1.02 1.02 0 0 0 1.1.718z" class="prefix__cls-3" data-name="Path 3814" transform="translate(2832.911 11741.135)"/>
            <path id="prefix__Rectangle_1306" d="M0 0H24.516V1.389H0z" class="prefix__cls-4" data-name="Rectangle 1306" transform="translate(3.189 7.699)"/>
        </g>
        <g id="prefix__Group_1880" data-name="Group 1880" transform="translate(0 20.072)">
            <path id="prefix__Path_3815" d="M-3064.623-11730.618c-.331.01-.664.01-1 0h-.071a20 20 0 0 1-5.28-.854 20.045 20.045 0 0 1-13.384-24.988 20.045 20.045 0 0 1 24.988-13.384 20.024 20.024 0 0 1 4.868 2.215l.059.04q.423.267.83.554l27.367 18.284a9.587 9.587 0 0 1 4.864 11.336 9.588 9.588 0 0 1-10.331 6.742z" class="prefix__cls-5" data-name="Path 3815" transform="translate(3117.321 11770.708)"/>
            <path id="prefix__Path_3816" d="M-2955.954-11705.576q-.332.009-.667 0h-.048a13.375 13.375 0 0 1-3.531-.571 13.4 13.4 0 0 1-8.949-16.709 13.4 13.4 0 0 1 16.709-8.95 13.4 13.4 0 0 1 3.256 1.481l.04.026c.189.118.374.243.555.37l18.3 12.227a6.411 6.411 0 0 1 3.253 7.581 6.411 6.411 0 0 1-6.908 4.508z" class="prefix__cls-5" data-name="Path 3816" transform="translate(3041.869 11745.671)"/>
            <path id="prefix__Path_3817" d="M-3114.822-11705.576q-.332.009-.667 0h-.048a13.374 13.374 0 0 1-3.53-.571 13.4 13.4 0 0 1-8.95-16.709 13.4 13.4 0 0 1 16.709-8.95 13.4 13.4 0 0 1 3.256 1.481l.04.026c.188.118.374.243.555.37l18.3 12.227a6.411 6.411 0 0 1 3.252 7.581 6.411 6.411 0 0 1-6.908 4.508z" class="prefix__cls-5" data-name="Path 3817" transform="translate(3145.658 11745.671)"/>
            <path id="prefix__Path_3818" d="M-2852.516-11690.522h-.503a9.426 9.426 0 0 1-2.479-.4 9.412 9.412 0 0 1-6.284-11.733 9.412 9.412 0 0 1 11.733-6.284 9.389 9.389 0 0 1 2.286 1.04l.028.019c.133.083.262.171.39.261l12.85 8.585a4.5 4.5 0 0 1 2.284 5.323 4.5 4.5 0 0 1-4.851 3.165z" class="prefix__cls-5" data-name="Path 3818" transform="translate(2971.614 11730.621)"/>
            <path id="prefix__Path_3819" d="M-3168.138-11690.522h-.502a9.426 9.426 0 0 1-2.479-.4 9.412 9.412 0 0 1-6.285-11.733 9.412 9.412 0 0 1 11.733-6.284 9.376 9.376 0 0 1 2.286 1.04l.028.019c.132.083.262.171.389.261l12.851 8.585a4.5 4.5 0 0 1 2.284 5.323 4.5 4.5 0 0 1-4.851 3.165z" class="prefix__cls-5" data-name="Path 3819" transform="translate(3177.809 11730.621)"/>
            <path id="prefix__Rectangle_1307" fill="#e8eee8" d="M0 0H108.134V6.126H0z" data-name="Rectangle 1307" transform="translate(17.399 33.96)"/>
        </g>
        <path id="prefix__Path_3820" d="M-3139.8-11790.607a1.581 1.581 0 0 0 .236 0H-3133.213a1.093 1.093 0 0 0 .2 0h3.78a2.161 2.161 0 0 0 .583-.094 2.211 2.211 0 0 0 1.477-2.757 2.212 2.212 0 0 0-2.757-1.478 2.25 2.25 0 0 0-.537.245h-.007c-.031.02-.062.04-.092.062l-.561.375a3.188 3.188 0 0 0-.1-.418 3.149 3.149 0 0 0-3.927-2.1 3.118 3.118 0 0 0-.765.348l-.009.006c-.044.028-.088.058-.13.088l-2.57 1.717a2.451 2.451 0 0 0-2.78-1.037 2.458 2.458 0 0 0-.594.271h-.007c-.034.021-.068.044-.1.068l-.047.031c-.016-.064-.033-.128-.052-.191a3.769 3.769 0 0 0-4.7-2.518 3.731 3.731 0 0 0-.916.417l-.011.008c-.053.033-.1.068-.156.1l-5.146 3.438h-.008a2.213 2.213 0 0 0-2.5-.922 2.265 2.265 0 0 0-.537.245h-.006c-.031.02-.061.04-.091.062l-3.02 2.018a1.058 1.058 0 0 0-.536 1.251 1.058 1.058 0 0 0 1.14.743l3.632.006h2.613a1.847 1.847 0 0 0 .255 0h6.532z" class="prefix__cls-3" data-name="Path 3820" transform="translate(3166.1 11808.704)"/>
        <path id="prefix__Path_3821" fill="#fffef0" fill-rule="evenodd" d="M-3048.551-11729.605l-.1.193-.008.014a4.389 4.389 0 0 1-.714.935 4.405 4.405 0 0 1-6.23 0 4.406 4.406 0 0 1-.339-5.85 4.406 4.406 0 0 1-3.9-4.376 4.407 4.407 0 0 1 3.9-4.377 4.407 4.407 0 0 1 .339-5.85 4.407 4.407 0 0 1 6.23 0 4.454 4.454 0 0 1 .714.935l.007.015c.036.063.07.127.1.193l2.625 4.92q.186-.064.379-.111l13.231-4.971c.132-.053.266-.1.4-.15l.029-.01a8.593 8.593 0 0 1 2.252-.449 8.607 8.607 0 0 1 9.14 8.039 8.607 8.607 0 0 1-8.04 9.14 8.532 8.532 0 0 1-2.292-.159l-.03-.007c-.14-.029-.28-.062-.417-.1l-13.757-3.241a4.069 4.069 0 0 1-.648-.124z" data-name="Path 3821" transform="translate(3100.742 11777.387)"/>
        <path id="prefix__Path_3822" d="M-3025.918-11793.176q.081.264.176.522l.013.038a11.024 11.024 0 0 0 1.382 2.61 11.069 11.069 0 0 0 15.441 2.575 11.07 11.07 0 0 0 2.575-15.441 11.059 11.059 0 0 0-2.021-2.154l-.031-.023q-.215-.174-.437-.336l-14.412-11.077a5.3 5.3 0 0 0-6.792-.537 5.3 5.3 0 0 0-1.7 6.6z" class="prefix__cls-3" data-name="Path 3822" transform="translate(3082.709 11821.666)"/>
        <path id="prefix__Path_3823" d="M-2945.052-11781.768c3.378 1.076 4.414 4.889 2.313 8.514s-6.54 5.692-9.917 4.615-4.414-4.888-2.314-8.514 6.541-5.691 9.918-4.615z" class="prefix__cls-3" data-name="Path 3823" transform="translate(3032.938 11798.191)"/>
        <path id="prefix__Path_3824" d="M-2940.836-11768.164a6.314 6.314 0 0 1-2.311 8.625 6.314 6.314 0 0 1-8.625-2.311 6.315 6.315 0 0 1 2.311-8.626 6.315 6.315 0 0 1 8.625 2.312z" class="prefix__cls-8" data-name="Path 3824" transform="translate(3030.693 11791.182)"/>
        <path id="prefix__Path_3825" d="M-2940.836-11764.824a6.314 6.314 0 0 1-2.311 8.625 6.314 6.314 0 0 1-8.625-2.311 6.315 6.315 0 0 1 2.311-8.626 6.315 6.315 0 0 1 8.625 2.312z" class="prefix__cls-9" data-name="Path 3825" transform="translate(3030.693 11789)"/>
        <path id="prefix__Path_3826" d="M-2927.523-11762.939c1.744 1.906.709 4.346-2.311 5.446s-6.882.447-8.625-1.459-.709-4.347 2.311-5.447 6.881-.449 8.625 1.46z" class="prefix__cls-9" data-name="Path 3826" transform="translate(3021.996 11787.009)"/>
        <path id="prefix__Path_3827" d="M-2961.571-11723.183c-.054-.175-.113-.349-.176-.521l-.013-.038a11.043 11.043 0 0 0-1.382-2.61 11.068 11.068 0 0 0-15.441-2.574 11.068 11.068 0 0 0-2.575 15.44 11.008 11.008 0 0 0 2.021 2.154l.031.023q.215.174.437.336l14.412 11.076a5.3 5.3 0 0 0 6.792.536 5.3 5.3 0 0 0 1.7-6.6z" class="prefix__cls-10" data-name="Path 3827" transform="translate(3050.685 11764.832)"/>
        <g id="prefix__Group_1881" data-name="Group 1881" transform="translate(40.306 28.177)">
            <path id="prefix__Path_3828" d="M-3044.712-11706.192c-.032.065-.067.13-.1.194l-.008.014a4.4 4.4 0 0 1-.714.934 4.4 4.4 0 0 1-6.23 0 4.405 4.405 0 0 1 0-6.23 4.423 4.423 0 0 1 .934-.714l.014-.007c.064-.037.128-.07.193-.1l6.383-3.405a2.109 2.109 0 0 1 2.7.233 2.108 2.108 0 0 1 .234 2.7z" class="prefix__cls-10" data-name="Path 3828" transform="translate(3056.003 11726.793)"/>
            <path id="prefix__Path_3829" d="M-3055.757-11718.234c-.069.023-.139.045-.209.064h-.015a4.407 4.407 0 0 1-1.165.156 4.406 4.406 0 0 1-4.406-4.406 4.406 4.406 0 0 1 4.406-4.405 4.41 4.41 0 0 1 1.165.156h.015c.07.02.14.041.209.063l6.921 2.106a2.106 2.106 0 0 1 1.744 2.075 2.107 2.107 0 0 1-1.744 2.076z" class="prefix__cls-11" data-name="Path 3829" transform="translate(3061.553 11733.932)"/>
            <path id="prefix__Path_3830" d="M-3050.626-11738.984c-.065-.032-.13-.067-.193-.1l-.014-.007a4.373 4.373 0 0 1-.934-.713 4.405 4.405 0 0 1 0-6.23 4.4 4.4 0 0 1 6.23 0 4.4 4.4 0 0 1 .714.934l.007.014q.054.1.1.193l3.405 6.383a2.107 2.107 0 0 1-.234 2.7 2.105 2.105 0 0 1-2.7.234z" class="prefix__cls-12" data-name="Path 3830" transform="translate(3056.003 11747.33)"/>
        </g>
        <path id="prefix__Path_3831" d="M-3011.486-11722.271c.135.045.272.086.41.124l.03.009a8.538 8.538 0 0 0 2.276.306 8.607 8.607 0 0 0 8.607-8.607 8.608 8.608 0 0 0-8.607-8.607 8.62 8.62 0 0 0-2.276.3l-.03.008c-.138.039-.274.081-.41.125l-13.522 4.114a4.116 4.116 0 0 0-3.408 4.055 4.116 4.116 0 0 0 3.408 4.055z" class="prefix__cls-10" data-name="Path 3831" transform="translate(3080.211 11770.098)"/>
        <path id="prefix__Path_3832" d="M-2999.336-11715.02a5.887 5.887 0 0 1-7.393 1.174 5.9 5.9 0 0 1-2.556-7.036l3.412-14.119c.038-.174.079-.346.126-.518l.009-.031a10.587 10.587 0 0 1 1.092-2.587 10.539 10.539 0 0 1 14.428-3.729 10.539 10.539 0 0 1 3.729 14.428 10.526 10.526 0 0 1-1.735 2.211l-.038.035.011-.011c-.127.123-.257.242-.358.33l-10.727 9.854zm9.637-11.041c.111-.1.221-.2.327-.3l.023-.021a8.914 8.914 0 0 0 1.471-1.873 8.926 8.926 0 0 0-3.159-12.223 8.927 8.927 0 0 0-12.222 3.159 8.924 8.924 0 0 0-.926 2.2l-.008.03c-.038.144-.073.287-.1.432l-3.443 14.248a4.272 4.272 0 0 0 1.829 5.182 4.27 4.27 0 0 0 5.417-.911z" class="prefix__cls-8" data-name="Path 3832" transform="translate(3067.934 11772.892)"/>
        <path id="prefix__Path_3833" d="M-2980.689-11731.088q-.141.16-.292.313l-.021.023a8.613 8.613 0 0 1-1.819 1.4 8.607 8.607 0 0 1-11.758-3.15 8.607 8.607 0 0 1 3.151-11.758 8.582 8.582 0 0 1 2.124-.874l.03-.007c.139-.036.278-.068.417-.1l13.767-3.2a4.116 4.116 0 0 1 4.979 1.808 4.117 4.117 0 0 1-.924 5.216z" class="prefix__cls-12" data-name="Path 3833" transform="translate(3058.86 11776.394)"/>
        <path id="prefix__Path_3834" d="M-2940.688-11758.653a6.378 6.378 0 0 1-2.334 8.712 6.378 6.378 0 0 1-8.712-2.334 6.379 6.379 0 0 1 2.334-8.713 6.377 6.377 0 0 1 8.712 2.335z" class="prefix__cls-12" data-name="Path 3834" transform="translate(3030.675 11784.989)"/>
        <path id="prefix__Path_3835" d="M-2922.584-11747.268l-.094-.028h-.007a1.94 1.94 0 0 0-.52-.07 1.962 1.962 0 0 0-1.962 1.963 1.962 1.962 0 0 0 1.962 1.962 1.981 1.981 0 0 0 .52-.069h.007l.094-.028 3.083-.938a.938.938 0 0 0 .777-.924.94.94 0 0 0-.777-.926z" class="prefix__cls-8" data-name="Path 3835" transform="translate(3012.758 11775.531)"/>
        <path id="prefix__Path_3836" d="M-3024.512-11788.255c.054.175.112.35.176.522l.013.037a11.034 11.034 0 0 0 1.382 2.61 11.069 11.069 0 0 0 15.441 2.575 11.07 11.07 0 0 0 2.575-15.441 11.093 11.093 0 0 0-2.021-2.154l-.031-.023c-.143-.115-.289-.228-.437-.335l-14.412-11.077a5.3 5.3 0 0 0-6.792-.536 5.294 5.294 0 0 0-1.7 6.6z" class="prefix__cls-12" data-name="Path 3836" transform="translate(3081.79 11818.451)"/>
        <path id="prefix__Path_3837" d="M-3011.4-11798.3l-3.2-2.464a11.018 11.018 0 0 1-4.053 5.462 11.012 11.012 0 0 1-6.591 2.06l1.313 3.9a11.035 11.035 0 0 0 8.081-1.937 11.035 11.035 0 0 0 4.45-7.021z" class="prefix__cls-10" data-name="Path 3837" transform="translate(3078.143 11810.415)"/>
        <path id="prefix__Path_3838" d="M-3001.78-11785.646l-2.812-2.161a11.043 11.043 0 0 1-4.592 8.03 11.05 11.05 0 0 1-9.682 1.573l1.131 3.356a11.067 11.067 0 0 0 11.354-.909 11.062 11.062 0 0 0 4.601-9.889z" class="prefix__cls-11" data-name="Path 3838" transform="translate(3073.972 11801.95)"/>
        <path id="prefix__Path_3839" d="M-2981.218-11723.243l2.686.036a4.424 4.424 0 0 0 3.475-2.178l1.171-2.092a.218.218 0 0 0 0-.221.217.217 0 0 0-.19-.111l-2.687-.036a4.424 4.424 0 0 0-3.475 2.178l-1.171 2.091a.218.218 0 0 0 0 .221.216.216 0 0 0 .191.112z" class="prefix__cls-11" data-name="Path 3839" transform="translate(3049.522 11762.777)"/>
        <path id="prefix__Path_3840" d="M-2960.373-11720.346l2.354.03a3.874 3.874 0 0 0 3.045-1.908l1.026-1.832a.19.19 0 0 0 0-.193.194.194 0 0 0-.167-.1l-2.354-.031a3.877 3.877 0 0 0-3.045 1.908l-1.026 1.833a.19.19 0 0 0 0 .193.193.193 0 0 0 .167.1z" class="prefix__cls-10" data-name="Path 3840" transform="translate(3035.885 11760.514)"/>
        <path id="prefix__Path_3841" d="M-3030-11686.4l13.3 7.681a2.568 2.568 0 0 1 .937 3.5l-6.116 10.594a2.568 2.568 0 0 1-3.5.938l-13.3-7.682a2.566 2.566 0 0 1-.937-3.5l6.116-10.594a2.568 2.568 0 0 1 3.5-.937z" class="prefix__cls-13" data-name="Path 3841" transform="translate(3087.753 11735.922)"/>
        <path id="prefix__Path_3842" d="M-2976.6-11707.02l1.868.024a3.074 3.074 0 0 0 2.416-1.515l.814-1.454a.151.151 0 0 0 0-.153.154.154 0 0 0-.133-.078l-1.868-.024a3.072 3.072 0 0 0-2.417 1.515l-.814 1.453a.152.152 0 0 0 0 .154.153.153 0 0 0 .134.078z" class="prefix__cls-10" data-name="Path 3842" transform="translate(3046.463 11751.264)"/>
        <path id="prefix__Path_3843" d="M-3022.86-11697.078l12.469 7.2a2.406 2.406 0 0 1 .878 3.277l-5.733 9.93a2.406 2.406 0 0 1-3.278.878l-12.469-7.2a2.408 2.408 0 0 1-.878-3.278l5.733-9.93a2.406 2.406 0 0 1 3.278-.877z" class="prefix__cls-3" data-name="Path 3843" transform="translate(3082.676 11742.887)"/>
        <path id="prefix__Path_3844" d="M-3037.358-11690.641l13.3 7.682a2.567 2.567 0 0 1 .937 3.5l-6.116 10.594a2.567 2.567 0 0 1-3.5.937l-13.3-7.681a2.566 2.566 0 0 1-.937-3.5l6.116-10.594a2.568 2.568 0 0 1 3.5-.938z" class="prefix__cls-8" data-name="Path 3844" transform="translate(3092.557 11738.695)"/>
        <path id="prefix__Path_3845" d="M-3073.74-11601.053q.333.01.67 0h9.685l4.34.007h.48l.185-.007h2.525a3.166 3.166 0 0 0 .561 0h5.28l5.194.009h.337a6.318 6.318 0 0 0 1.666-.271 6.326 6.326 0 0 0 4.225-7.886 6.324 6.324 0 0 0-7.885-4.224 6.176 6.176 0 0 0-1.537.7l-.02.012c-.088.058-.175.115-.262.176l-1.6 1.072a9.037 9.037 0 0 0-.275-1.2 9.011 9.011 0 0 0-10.449-6.214 13.471 13.471 0 0 0-16.646-8.539 13.524 13.524 0 0 0-3.273 1.488l-.041.026c-.189.119-.374.244-.557.373l-10.913 7.291a8.97 8.97 0 0 0-6.373-.439 9 9 0 0 0-2.188 1l-.027.017c-.127.081-.251.163-.374.25l-11.351 7.584a6.328 6.328 0 0 0-7.66-3.594 6.287 6.287 0 0 0-1.536.7l-.019.012c-.088.058-.176.115-.262.176l-6.35 4.242a5.448 5.448 0 0 0-6.242-3.529 8.145 8.145 0 0 0-10.064-5.162 8.162 8.162 0 0 0-1.979.9l-.024.016c-.115.073-.227.148-.337.227l-6.6 4.408a5.414 5.414 0 0 0-3.853-.266 5.45 5.45 0 0 0-1.323.6l-.016.011c-.077.049-.152.1-.226.151l-6.863 4.586a3.824 3.824 0 0 0-4.631-2.173 3.84 3.84 0 0 0-.929.422l-.011.008c-.054.034-.106.068-.158.105l-5.222 3.489a1.83 1.83 0 0 0-.928 2.163 1.83 1.83 0 0 0 1.971 1.286l6.28.011H-3169.141l.125-.006h3.692a2.4 2.4 0 0 0 .411 0h8.522q.175.009.352 0H-3142.918a2.639 2.639 0 0 0 .373 0h11.001a1.647 1.647 0 0 0 .34 0h1.853a2.938 2.938 0 0 0 .473 0h.866l3.141.006h.203c.067 0 .136-.006.2-.011l6.1.011h.337l.213-.009h6.1a4.431 4.431 0 0 0 .674 0H-3096.955c.2.01.4.01.607 0h21.685a4.322 4.322 0 0 0 .584 0z" class="prefix__cls-3" data-name="Path 3845" transform="translate(3177.724 11697.548)"/>
        <path id="prefix__Path_3846" d="M-3004.384-11782.851a9.6 9.6 0 0 0 4.441-1.726 9.642 9.642 0 0 0 2.243-13.449 9.653 9.653 0 0 0-1.76-1.877l-.027-.021q-.186-.151-.38-.292l-12.552-9.647a4.618 4.618 0 0 0-5.039-.959 4.611 4.611 0 0 1 3.333 1.325l12.552 9.647c.129.094.256.192.38.292l.027.021a9.627 9.627 0 0 1 1.76 1.876 9.642 9.642 0 0 1-2.242 13.449 9.652 9.652 0 0 1-2.736 1.361z" class="prefix__cls-9" data-name="Path 3846" transform="translate(3073.052 11817.226)"/>
        <path id="prefix__Path_3847" d="M-3077.219-11670.611l11.224 3.6a1.969 1.969 0 0 1 1.271 2.471l-2.865 8.937a1.971 1.971 0 0 1-2.471 1.271l-11.223-3.6a1.97 1.97 0 0 1-1.271-2.471l2.866-8.937a1.969 1.969 0 0 1 2.469-1.271z" class="prefix__cls-3" data-name="Path 3847" transform="translate(3115.641 11725.448)"/>
        <path id="prefix__Rectangle_1308" d="M2.834 0h2.191a2.833 2.833 0 0 1 2.833 2.833v.991a2.833 2.833 0 0 1-2.833 2.833H2.832A2.832 2.832 0 0 1 0 3.825v-.991A2.834 2.834 0 0 1 2.834 0z" class="prefix__cls-4" data-name="Rectangle 1308" transform="rotate(-12.845 259.117 -65.073)"/>
        <rect id="prefix__Rectangle_1309" width="7.554" height="1.462" fill="#fffef0" data-name="Rectangle 1309" rx=".731" transform="translate(18.372 26.331)"/>
        <rect id="prefix__Rectangle_1310" width="7.554" height="1.462" class="prefix__cls-4" data-name="Rectangle 1310" rx=".731" transform="translate(48.21 3.731)"/>
        <rect id="prefix__Rectangle_1311" width="2.924" height="1.462" class="prefix__cls-4" data-name="Rectangle 1311" rx=".731" transform="translate(43.824 3.731)"/>
        <rect id="prefix__Rectangle_1312" width="2.924" height="1.462" class="prefix__cls-4" data-name="Rectangle 1312" rx=".731" transform="translate(34.991 3.731)"/>
        <rect id="prefix__Rectangle_1313" width="7.554" height="1.462" class="prefix__cls-4" data-name="Rectangle 1313" rx=".731" transform="translate(31.895 73.056)"/>
        <rect id="prefix__Rectangle_1314" width="2.924" height="1.462" class="prefix__cls-4" data-name="Rectangle 1314" rx=".731" transform="translate(27.509 73.056)"/>
        <rect id="prefix__Rectangle_1315" width="2.924" height="1.462" class="prefix__cls-4" data-name="Rectangle 1315" rx=".731" transform="translate(40.667 73.056)"/>
        <path id="prefix__Path_3848" d="M-2934.889-11753.443a2.226 2.226 0 0 0 2.222-2.222 2.227 2.227 0 0 0-2.222-2.223 2.227 2.227 0 0 0-2.222 2.223 2.226 2.226 0 0 0 2.222 2.222z" class="prefix__cls-10" data-name="Path 3848" transform="translate(3020.562 11782.404)"/>
        <path id="prefix__Path_3849" d="M-2933.4-11754.226a1.433 1.433 0 0 1 1.433 1.434 1.434 1.434 0 0 1-.08.473 1.434 1.434 0 0 0-1.354-.962 1.435 1.435 0 0 0-1.354.962 1.446 1.446 0 0 1-.079-.473 1.433 1.433 0 0 1 1.434-1.434z" class="prefix__cls-9" data-name="Path 3849" transform="translate(3019.075 11780.013)"/>
        <path id="prefix__Path_3850" d="M-2822.7-11637.418l-2.442 3.893a.437.437 0 0 1-.379.209.437.437 0 0 1-.379-.209l-2.438-3.887q-.083-.122-.156-.249a3.4 3.4 0 0 1-.44-1.678 3.416 3.416 0 0 1 3.415-3.415 3.416 3.416 0 0 1 3.416 3.415 3.4 3.4 0 0 1-.438 1.674l-.007.013c-.046.081-.1.161-.149.239zm-2.822-3.5a1.574 1.574 0 0 0-1.574 1.574 1.574 1.574 0 0 0 1.574 1.574 1.574 1.574 0 0 0 1.575-1.574 1.575 1.575 0 0 0-1.57-1.574z" class="prefix__cls-5" data-name="Path 3850" transform="translate(2949.888 11707.191)"/>
        <path id="prefix__Path_3851" d="M-3016.919-11664.508l.486 1.812a.55.55 0 0 1 0 .284.553.553 0 0 1-.675.39l-1.667-.447a5.055 5.055 0 0 1-1.154.528 5.036 5.036 0 0 1-1.509.23 5.032 5.032 0 0 1-3.567-1.478 5.033 5.033 0 0 1-1.481-3.569 5.031 5.031 0 0 1 1.478-3.566 5.03 5.03 0 0 1 3.569-1.48 5.033 5.033 0 0 1 3.567 1.478 5.03 5.03 0 0 1 1.48 3.569 5.081 5.081 0 0 1-.162 1.268 5.073 5.073 0 0 1-.367.982zm-.825 1.174c-.1-.366-.194-.732-.294-1.1a.541.541 0 0 1 .054-.414 3.9 3.9 0 0 0 .367-.92 3.956 3.956 0 0 0 .125-.991 3.934 3.934 0 0 0-1.154-2.789 3.935 3.935 0 0 0-2.791-1.155 3.935 3.935 0 0 0-2.79 1.153 3.933 3.933 0 0 0-1.155 2.791 3.93 3.93 0 0 0 1.154 2.789 3.932 3.932 0 0 0 2.791 1.156 3.966 3.966 0 0 0 1.181-.179 3.948 3.948 0 0 0 1.071-.526.548.548 0 0 1 .463-.078z" class="prefix__cls-13" data-name="Path 3851" transform="translate(3078.949 11726.167)"/>
        <rect id="prefix__Rectangle_1316" width="4.134" height=".97" class="prefix__cls-15" data-name="Rectangle 1316" rx=".485" transform="translate(55.535 57.531)"/>
        <rect id="prefix__Rectangle_1317" width="4.134" height=".969" class="prefix__cls-15" data-name="Rectangle 1317" rx=".485" transform="translate(55.535 59.066)"/>
        <rect id="prefix__Rectangle_1318" width="2.546" height=".97" class="prefix__cls-15" data-name="Rectangle 1318" rx=".485" transform="translate(55.535 60.601)"/>
        <path id="prefix__Path_3852" d="M-3068.111-11664.3l3.024.934a.485.485 0 0 1 .32.605.485.485 0 0 1-.605.319l-3.024-.933a.487.487 0 0 1-.32-.606.485.485 0 0 1 .605-.319z" class="prefix__cls-1" data-name="Path 3852" transform="translate(3106.554 11721.279)"/>
        <path id="prefix__Path_3853" d="M-3069.417-11660.071l3.024.934a.486.486 0 0 1 .32.606.487.487 0 0 1-.606.32l-3.024-.935a.485.485 0 0 1-.32-.605.486.486 0 0 1 .606-.32z" class="prefix__cls-1" data-name="Path 3853" transform="translate(3107.406 11718.516)"/>
        <path id="prefix__Path_3854" d="M-3070.723-11655.841l1.507.466a.485.485 0 0 1 .32.605.486.486 0 0 1-.606.32l-1.507-.465a.487.487 0 0 1-.32-.606.485.485 0 0 1 .606-.32z" class="prefix__cls-1" data-name="Path 3854" transform="translate(3108.26 11715.752)"/>
        <path id="prefix__Path_3855" d="M-3052.019-11676.355a1.542 1.542 0 0 0 1.539-1.539 1.542 1.542 0 0 0-1.539-1.539 1.542 1.542 0 0 0-1.539 1.539 1.542 1.542 0 0 0 1.539 1.539z" class="prefix__cls-8" data-name="Path 3855" transform="translate(3096.636 11731.15)"/>
        <path id="prefix__Path_3856" d="M-3061.775-11675.885a1.008 1.008 0 0 0 1.006-1.006 1.008 1.008 0 0 0-1.006-1.006 1.008 1.008 0 0 0-1.006 1.006 1.007 1.007 0 0 0 1.006 1.006z" class="prefix__cls-8" data-name="Path 3856" transform="translate(3102.662 11730.146)"/>
        <path id="prefix__Path_3857" d="M-3066.863-11739.016a1.542 1.542 0 0 0 1.539-1.539 1.542 1.542 0 0 0-1.539-1.539 1.542 1.542 0 0 0-1.539 1.539 1.542 1.542 0 0 0 1.539 1.539z" class="prefix__cls-11" data-name="Path 3857" transform="translate(3106.334 11772.087)"/>
        <path id="prefix__Path_3858" d="M-3076.619-11738.544a1.008 1.008 0 0 0 1.006-1.007 1.007 1.007 0 0 0-1.006-1 1.007 1.007 0 0 0-1.006 1 1.008 1.008 0 0 0 1.006 1.007z" class="prefix__cls-11" data-name="Path 3858" transform="translate(3112.359 11771.082)"/>
        <path id="prefix__Path_3859" d="M-3039.233-11786.808a1.542 1.542 0 0 0 1.539-1.539 1.541 1.541 0 0 0-1.539-1.538 1.541 1.541 0 0 0-1.539 1.538 1.542 1.542 0 0 0 1.539 1.539z" class="prefix__cls-12" data-name="Path 3859" transform="translate(3088.283 11803.309)"/>
        <circle id="prefix__Ellipse_490" cx="1.006" cy="1.006" r="1.006" fill="#515e80" data-name="Ellipse 490" transform="translate(44.313 13.956)"/>
        <path id="prefix__Path_3860" d="M-2901.872-11585.107l-2.442 3.893a.436.436 0 0 1-.379.21.438.438 0 0 1-.379-.21l-2.438-3.887c-.055-.08-.107-.164-.156-.249a3.4 3.4 0 0 1-.44-1.679 3.415 3.415 0 0 1 3.415-3.415 3.415 3.415 0 0 1 3.415 3.415 3.4 3.4 0 0 1-.438 1.675l-.007.012c-.046.082-.1.162-.149.239zm-2.822-3.5a1.575 1.575 0 0 0-1.574 1.574 1.575 1.575 0 0 0 1.575 1.575 1.575 1.575 0 0 0 1.575-1.575 1.575 1.575 0 0 0-1.576-1.574z" class="prefix__cls-8" data-name="Path 3860" transform="translate(3001.615 11673.017)"/>
        <path id="prefix__Path_3861" d="M-3112.755-11571.144h5.715a2.436 2.436 0 0 1 2.429 2.429v8.979h-10.573v-8.979a2.436 2.436 0 0 1 2.429-2.429z" class="prefix__cls-1" data-name="Path 3861" transform="translate(3136.896 11660.405)"/>
        <path id="prefix__Path_3862" d="M-3089.676-11564.549h5.715a2.435 2.435 0 0 1 2.429 2.429v6.691h-10.568v-6.691a2.435 2.435 0 0 1 2.424-2.429z" class="prefix__cls-1" data-name="Path 3862" transform="translate(3121.819 11656.097)"/>
        <path id="prefix__Path_3863" d="M-3048.053-11567.759h5.715a2.436 2.436 0 0 1 2.429 2.429v7.8h-10.573v-7.8a2.436 2.436 0 0 1 2.429-2.429z" class="prefix__cls-1" data-name="Path 3863" transform="translate(3094.627 11658.194)"/>
        <path id="prefix__Path_3864" d="M-3027.035-11560.841h5.715a2.436 2.436 0 0 1 2.429 2.43v5.405h-10.573v-5.405a2.436 2.436 0 0 1 2.429-2.43z" class="prefix__cls-1" data-name="Path 3864" transform="translate(3080.896 11653.675)"/>
        <path id="prefix__Path_3865" d="M-3000.659-11571.626h5.715a2.436 2.436 0 0 1 2.429 2.429v9.146h-10.573v-9.146a2.436 2.436 0 0 1 2.429-2.429z" class="prefix__cls-1" data-name="Path 3865" transform="translate(3063.664 11660.721)"/>
        <path id="prefix__Path_3866" d="M-2975.932-11559.6h5.715a2.436 2.436 0 0 1 2.43 2.43v4.977h-10.574v-4.977a2.436 2.436 0 0 1 2.429-2.43z" class="prefix__cls-1" data-name="Path 3866" transform="translate(3047.51 11652.866)"/>
        <path id="prefix__Path_3867" d="M-2911.642-11559.6h5.715a2.436 2.436 0 0 1 2.429 2.43v4.977h-10.573v-4.977a2.436 2.436 0 0 1 2.429-2.43z" class="prefix__cls-1" data-name="Path 3867" transform="translate(3005.51 11652.866)"/>
        <path id="prefix__Path_3868" d="M-2870.206-11588.454h5.715a2.436 2.436 0 0 1 2.429 2.429v14.979h-10.573v-14.979a2.436 2.436 0 0 1 2.429-2.429z" class="prefix__cls-1" data-name="Path 3868" transform="translate(2978.44 11671.714)"/>
        <path id="prefix__Rectangle_1319" d="M.75 0a.75.75 0 0 1 .75.75v.643a.749.749 0 0 1-.749.749A.749.749 0 0 1 0 1.393V.75A.75.75 0 0 1 .75 0z" class="prefix__cls-4" data-name="Rectangle 1319" transform="translate(23.854 90.689)"/>
        <path id="prefix__Rectangle_1320" d="M.75 0a.75.75 0 0 1 .75.75v.643a.75.75 0 0 1-.75.75.75.75 0 0 1-.75-.75V.75A.75.75 0 0 1 .75 0z" class="prefix__cls-4" data-name="Rectangle 1320" transform="translate(26.248 90.689)"/>
        <path id="prefix__Rectangle_1321" d="M.75 0a.75.75 0 0 1 .75.75v.643a.75.75 0 0 1-.75.75.75.75 0 0 1-.75-.75V.75A.75.75 0 0 1 .75 0z" class="prefix__cls-4" data-name="Rectangle 1321" transform="translate(28.641 90.689)"/>
        <rect id="prefix__Rectangle_1322" width="1.5" height="2.143" class="prefix__cls-4" data-name="Rectangle 1322" rx=".75" transform="translate(23.854 93.618)"/>
        <path id="prefix__Rectangle_1323" d="M.75 0a.75.75 0 0 1 .75.75v.643a.75.75 0 0 1-.75.75.75.75 0 0 1-.75-.75V.75A.75.75 0 0 1 .75 0z" class="prefix__cls-4" data-name="Rectangle 1323" transform="translate(26.248 93.618)"/>
        <path id="prefix__Rectangle_1324" d="M.75 0a.75.75 0 0 1 .75.75v.643a.75.75 0 0 1-.75.75.75.75 0 0 1-.75-.75V.75A.75.75 0 0 1 .75 0z" class="prefix__cls-4" data-name="Rectangle 1324" transform="translate(28.641 93.618)"/>
        <path id="prefix__Rectangle_1325" d="M.75 0a.75.75 0 0 1 .75.75v.643a.75.75 0 0 1-.75.75.75.75 0 0 1-.75-.75V.75A.75.75 0 0 1 .75 0z" class="prefix__cls-4" data-name="Rectangle 1325" transform="translate(46.359 93.618)"/>
        <path id="prefix__Rectangle_1326" d="M.75 0a.75.75 0 0 1 .75.75v.643a.75.75 0 0 1-.75.75.75.75 0 0 1-.75-.75V.75A.75.75 0 0 1 .75 0z" class="prefix__cls-4" data-name="Rectangle 1326" transform="translate(48.752 93.618)"/>
        <path id="prefix__Rectangle_1327" d="M.75 0a.75.75 0 0 1 .75.75v.643a.749.749 0 0 1-.749.749A.749.749 0 0 1 0 1.393V.75A.75.75 0 0 1 .75 0z" class="prefix__cls-4" data-name="Rectangle 1327" transform="translate(51.146 93.618)"/>
        <path id="prefix__Rectangle_1328" d="M.75 0a.75.75 0 0 1 .75.75v.644a.749.749 0 0 1-.749.749.75.75 0 0 1-.751-.75V.75A.75.75 0 0 1 .75 0z" class="prefix__cls-4" data-name="Rectangle 1328" transform="translate(62.735 90.456)"/>
        <path id="prefix__Rectangle_1329" d="M.75 0a.75.75 0 0 1 .75.75v.643a.75.75 0 0 1-.75.75.75.75 0 0 1-.75-.75V.75A.75.75 0 0 1 .75 0z" class="prefix__cls-4" data-name="Rectangle 1329" transform="translate(65.128 90.456)"/>
        <path id="prefix__Rectangle_1330" d="M.75 0a.75.75 0 0 1 .75.75v.644a.75.75 0 0 1-.75.75.75.75 0 0 1-.75-.751V.75A.75.75 0 0 1 .75 0z" class="prefix__cls-4" data-name="Rectangle 1330" transform="translate(67.522 90.456)"/>
        <path id="prefix__Rectangle_1331" d="M.75 0a.75.75 0 0 1 .75.75v.644a.749.749 0 0 1-.749.749.75.75 0 0 1-.751-.75V.75A.75.75 0 0 1 .75 0z" class="prefix__cls-4" data-name="Rectangle 1331" transform="translate(73.987 94.171)"/>
        <path id="prefix__Rectangle_1332" d="M.75 0a.749.749 0 0 1 .75.749v.644a.75.75 0 0 1-.75.75.75.75 0 0 1-.75-.75V.75A.75.75 0 0 1 .75 0z" class="prefix__cls-4" data-name="Rectangle 1332" transform="translate(76.38 94.171)"/>
        <path id="prefix__Rectangle_1333" d="M.75 0a.75.75 0 0 1 .75.75v.643a.75.75 0 0 1-.75.75.75.75 0 0 1-.75-.75V.75A.75.75 0 0 1 .75 0z" class="prefix__cls-4" data-name="Rectangle 1333" transform="translate(93.561 94.171)"/>
        <path id="prefix__Rectangle_1334" d="M.75 0a.75.75 0 0 1 .75.75v.643a.75.75 0 0 1-.75.75.75.75 0 0 1-.75-.75V.75A.75.75 0 0 1 .75 0z" class="prefix__cls-4" data-name="Rectangle 1334" transform="translate(95.955 94.171)"/>
        <path id="prefix__Rectangle_1335" d="M.751 0A.75.75 0 0 1 1.5.75v.644a.75.75 0 0 1-.75.75.75.75 0 0 1-.75-.751V.751A.751.751 0 0 1 .751 0z" class="prefix__cls-4" data-name="Rectangle 1335" transform="translate(107.564 85.312)"/>
        <path id="prefix__Rectangle_1336" d="M.75 0a.75.75 0 0 1 .75.75v.644a.749.749 0 0 1-.749.749A.749.749 0 0 1 0 1.394V.75A.75.75 0 0 1 .75 0z" class="prefix__cls-4" data-name="Rectangle 1336" transform="translate(109.957 85.312)"/>
        <path id="prefix__Rectangle_1337" d="M.75 0a.75.75 0 0 1 .75.75v.643a.75.75 0 0 1-.75.75.75.75 0 0 1-.75-.749V.75A.75.75 0 0 1 .75 0z" class="prefix__cls-4" data-name="Rectangle 1337" transform="translate(107.564 88.313)"/>
        <path id="prefix__Rectangle_1338" d="M.751 0A.75.75 0 0 1 1.5.75v.643a.75.75 0 0 1-.75.75.75.75 0 0 1-.75-.75V.751A.751.751 0 0 1 .751 0z" class="prefix__cls-4" data-name="Rectangle 1338" transform="translate(109.957 88.313)"/>
        <path id="prefix__Path_3869" d="M-2941.651-11575.985h5.715a2.436 2.436 0 0 1 2.429 2.429v10.657h-10.573v-10.657a2.436 2.436 0 0 1 2.429-2.429z" class="prefix__cls-1" data-name="Path 3869" transform="translate(3025.115 11663.568)"/>
        <path id="prefix__Rectangle_1339" d="M.751 0A.75.75 0 0 1 1.5.75v5.3a.75.75 0 0 1-.75.75.751.751 0 0 1-.75-.753V.751A.751.751 0 0 1 .751 0z" class="prefix__cls-4" data-name="Rectangle 1339" transform="translate(82.953 89.191)"/>
        <path id="prefix__Rectangle_1340" d="M.75 0a.751.751 0 0 1 .75.751v5.3a.75.75 0 0 1-.75.75.751.751 0 0 1-.75-.754V.75A.75.75 0 0 1 .75 0z" class="prefix__cls-4" data-name="Rectangle 1340" transform="translate(85.389 89.191)"/>
        <path id="prefix__Rectangle_1341" d="M.75 0a.751.751 0 0 1 .75.751v5.3a.75.75 0 0 1-.75.75.751.751 0 0 1-.75-.754V.75A.75.75 0 0 1 .75 0z" class="prefix__cls-4" data-name="Rectangle 1341" transform="translate(87.826 89.191)"/>
        <path id="prefix__Path_3870" d="M-2847.292-11571.8h7.341a3.129 3.129 0 0 1 3.121 3.12v8.515h-13.583v-8.515a3.129 3.129 0 0 1 3.121-3.12z" class="prefix__cls-1" data-name="Path 3870" transform="translate(2963.922 11660.835)"/>
        <path id="prefix__Rectangle_1342" d="M.751 0h5.3A.75.75 0 0 1 6.8.75a.751.751 0 0 1-.751.751H.75A.75.75 0 0 1 0 .751.751.751 0 0 1 .751 0z" class="prefix__cls-4" data-name="Rectangle 1342" transform="translate(115.837 91.352)"/>
        <path id="prefix__Rectangle_1343" d="M.75 0h5.3a.751.751 0 0 1 .75.751.75.75 0 0 1-.75.75H.75A.75.75 0 0 1 0 .751.75.75 0 0 1 .75 0z" class="prefix__cls-4" data-name="Rectangle 1343" transform="translate(115.837 93.606)"/>
        <path id="prefix__Path_3871" d="M-2919.629-11819.514h2.48a1.44 1.44 0 0 0 .225 0h5.298a3.025 3.025 0 0 0 .718-.126 3.039 3.039 0 0 0 2.03-3.788 3.038 3.038 0 0 0-3.788-2.029 3 3 0 0 0-.738.336l-.009.007c-.043.027-.085.055-.126.084l-1.42.948a4.552 4.552 0 0 0-.2-1.288 4.543 4.543 0 0 0-5.665-3.033 4.464 4.464 0 0 0-1.1.5l-.014.009c-.064.041-.127.082-.188.126l-3.681 2.46a3.027 3.027 0 0 0-2.149-.148 3 3 0 0 0-.738.336l-.009.007c-.043.027-.085.055-.125.084l-3.83 2.559a2.133 2.133 0 0 0-2.583-1.213 2.124 2.124 0 0 0-.518.236h-.006l-.088.06-2.913 1.946a1.02 1.02 0 0 0-.518 1.207 1.021 1.021 0 0 0 1.1.717l3.5.006h2.245a1.45 1.45 0 0 0 .226 0h12.58z" class="prefix__cls-5" data-name="Path 3871" transform="translate(3022.012 11828.603)"/>
        <path id="prefix__Path_3872" d="M-2883.259-11779.739l-2.442 3.893a.436.436 0 0 1-.379.21.436.436 0 0 1-.379-.21l-2.438-3.887c-.055-.08-.107-.164-.156-.249a3.408 3.408 0 0 1-.44-1.678 3.416 3.416 0 0 1 3.415-3.416 3.416 3.416 0 0 1 3.416 3.416 3.4 3.4 0 0 1-.438 1.674l-.007.012c-.046.082-.1.162-.149.239zm-2.822-3.5a1.574 1.574 0 0 0-1.574 1.574 1.575 1.575 0 0 0 1.574 1.574 1.575 1.575 0 0 0 1.575-1.574 1.574 1.574 0 0 0-1.575-1.573z" class="prefix__cls-5" data-name="Path 3872" transform="translate(2989.455 11800.169)"/>
    </g>
</svg>
