<svg xmlns="http://www.w3.org/2000/svg" width="66.296" height="66.964" viewBox="0 0 66.296 66.964">
    <defs>
        <style>
            .prefix__cls-3{fill:#4d4d4d}
        </style>
    </defs>
    <g id="prefix__Group_1856" data-name="Group 1856" transform="translate(-634 -374.831)">
        <g id="prefix__Group_1803" data-name="Group 1803" transform="translate(647.705 395.788)">
            <g id="prefix__Group_1799" data-name="Group 1799" transform="translate(21.748)">
                <path id="prefix__Path_3475" d="M1434.4-11116.265l3.352 1.189a4.16 4.16 0 0 0-2.534-3.529 4.178 4.178 0 0 0-5.148 1.632 4.157 4.157 0 0 0-.431 3.484l5.214 2.694a4.184 4.184 0 0 0 1.462-.814l-1.908-1.333a1.66 1.66 0 0 1-.684-1.649l.252-1.426a.324.324 0 0 1 .425-.248z" class="prefix__cls-3" data-name="Path 3475" transform="translate(-1429.439 11118.93)"/>
            </g>
            <g id="prefix__Group_1802" data-name="Group 1802" transform="translate(0 6.926)">
                <path id="prefix__Path_3476" d="M1399.607-11055.691h-12.743a.516.516 0 0 1-.566-.394l-.117-1.1c-.027-.249.261-.484.594-.484h11.009a2.287 2.287 0 0 1 2.384 1.479c.06.247-.223.499-.561.499z" class="prefix__cls-3" data-name="Path 3476" transform="translate(-1379.429 11071.982)"/>
                <path id="prefix__Path_3477" d="M1407.534-11067.485a6.165 6.165 0 0 0-5.7-1.75l-2.642-8.9a.148.148 0 0 1 .165-.175l1.685.321a.417.417 0 0 0 .455-.317l.522-3.859a.287.287 0 0 0-.331-.362l-4.312.616a.53.53 0 0 0-.452.582c.606 3.344 2.828 17.115-6.1 17.115h-3.647c-4.86 0-2.05-4.964-.673-6.789a.211.211 0 0 0-.148-.359h-11.813a.582.582 0 0 0-.53.389l-.472 1.2a10.653 10.653 0 0 0-6.82 7.454.293.293 0 0 0 .291.372h3.8l24.061.01a6.767 6.767 0 0 0-.023 1.241.18.18 0 0 0 .281.131l12.322-6.6a.22.22 0 0 0 .081-.32z" class="prefix__cls-3" data-name="Path 3477" transform="translate(-1366.711 11088.224)"/>
                <path id="prefix__Path_3478" d="M1382.707-11081.7h-10.04a.772.772 0 0 1-.781-.937l1.688-10.041a1.156 1.156 0 0 1 1.1-.937h10.04a.772.772 0 0 1 .78.938l-1.688 10.041a1.156 1.156 0 0 1-1.099.936z" class="prefix__cls-3" data-name="Path 3478" transform="translate(-1370.084 11095.468)"/>
                <path id="prefix__Path_3479" d="M1420.04-11098a2.5 2.5 0 0 0-.781-.646 3.353 3.353 0 0 0-4.2 1.351l-.241.364c-.038.059-.081.123-.127.191l-.17.267c-.12.189-.266.412-.4.632s-.285.467-.431.726-.305.53-.46.815-.311.58-.469.881-.31.61-.458.924-.3.626-.433.941l-.395.936c-.127.303-.239.609-.339.911l-.148.435-.128.423c-.042.132-.078.269-.111.4l-.094.371c-.053.249-.095.472-.129.651-.054.405-.076.634-.076.634a2.116 2.116 0 0 0 1.8 2.38 2.657 2.657 0 0 0 .97-.038l.274.094 1.047.352q1.05.346 2.105.682l2.114.664.385.118-.391 1.295-.34 1.145-.334 1.144-.332 1.146-.331 1.146c-.213.766-.433 1.529-.639 2.3l2.35.439c.323-.743.632-1.49.948-2.236l.463-1.121.461-1.12.459-1.122.453-1.123.832-2.083a2.593 2.593 0 0 0 .254-1.051 2.075 2.075 0 0 0-.247-1.038 1.888 1.888 0 0 0-.734-.738 2.135 2.135 0 0 0-.241-.114l-.1-.04-.127-.05-1.017-.412-2.041-.81q-1.022-.4-2.051-.791l-.451-.168.033-.088.1-.26c.036-.09.081-.189.122-.288.079-.2.189-.419.288-.642.115-.229.223-.461.353-.7s.259-.485.4-.731.281-.489.423-.73.287-.477.433-.7.284-.443.421-.647c.044-.066.087-.132.131-.194l.124.011.378.859.409.956a1.382 1.382 0 0 0 .1.168 1.375 1.375 0 0 0 .106.135 1.267 1.267 0 0 0 .259.223 1.439 1.439 0 0 0 .658.224l.5.03c.338.021.669.044.989.068.641.046 1.237.1 1.746.146s.932.1 1.228.13.464.058.464.058h.05a1.145 1.145 0 0 0 1.153-.853.774.774 0 0 0-.683-1.01s-.171-.015-.466-.048-.719-.08-1.223-.15-1.091-.148-1.718-.247c-.314-.048-.638-.1-.965-.154a.3.3 0 0 1-.242-.216l-.014-.05-.131-.472-.245-.922c-.156-.6-.3-1.16-.414-1.643s-.205-.888-.271-1.171a2.935 2.935 0 0 0-.445-1.149zm-.574 14.425a1.217 1.217 0 0 1 .077-.185z" class="prefix__cls-3" data-name="Path 3479" transform="translate(-1395.279 11098.952)"/>
                <g id="prefix__Group_1800" data-name="Group 1800" transform="translate(1.779 26.852)">
                    <path id="prefix__Path_3480" d="M1377.294-11019.246a2.3 2.3 0 0 1-2.971-2.045v-.213h-2.459a5 5 0 0 0-.006.791c.2 2.791 2.716 4.508 5.619 3.838a6.5 6.5 0 0 0 4.743-4.629h-2.457a3.455 3.455 0 0 1-2.469 2.258z" class="prefix__cls-3" data-name="Path 3480" transform="translate(-1371.842 11021.504)"/>
                </g>
                <g id="prefix__Group_1801" data-name="Group 1801" transform="translate(30.206 22.4)">
                    <path id="prefix__Path_3481" d="M1464.357-11031.534a4.222 4.222 0 0 0-1.292-2.81l-2.639 1.418a2.2 2.2 0 0 1 1.463 1.97 3.348 3.348 0 0 1-2.6 3.314 2.3 2.3 0 0 1-2.97-2.045 2.814 2.814 0 0 1 .156-1.115l-2.636 1.415q0 .139.012.278c.2 2.79 2.716 4.508 5.619 3.839a6.316 6.316 0 0 0 4.887-6.264z" class="prefix__cls-3" data-name="Path 3481" transform="translate(-1453.835 11034.344)"/>
                </g>
            </g>
        </g>
    </g>
</svg>
