<svg xmlns="http://www.w3.org/2000/svg" id="prefix__Group_1813" width="38.741" height="43.18" data-name="Group 1813" viewBox="0 0 38.741 43.18">
    <defs>
        <style>
            .prefix__cls-1{fill:#ffffff}
        </style>
    </defs>
    <path id="prefix__Path_3491" d="M1614.464-11122.968a22.973 22.973 0 0 0-3.581.2c.237-.168.849-.64 3.247-.619a3.994 3.994 0 0 0-2.441-2.049 4.007 4.007 0 0 0-4.976 2.706 4.005 4.005 0 0 0 2.705 4.976 4.005 4.005 0 0 0 4.976-2.7 3.981 3.981 0 0 0 .137-1.576c1.731.025 3.125-.153 3.13-.406s-1.427-.499-3.197-.532z" class="prefix__cls-1" data-name="Path 3491" transform="translate(-1589.685 11125.604)"/>
    <path id="prefix__Path_3492" d="M1601.784-11024.9a2.724 2.724 0 0 1-.147-.282 1.6 1.6 0 0 0-.666-.146 1.622 1.622 0 0 0-1.622 1.621 1.623 1.623 0 0 0 1.622 1.623 1.623 1.623 0 0 0 1.622-1.623 1.584 1.584 0 0 0-.058-.4 2.6 2.6 0 0 1-.751-.793z" class="prefix__cls-1" data-name="Path 3492" transform="translate(-1584.982 11060.094)"/>
    <path id="prefix__Path_3493" d="M1637.269-11040.234a6.781 6.781 0 0 0-1.382.143l.358 1a5.707 5.707 0 0 1 1.024-.1 5.754 5.754 0 0 1 5.746 5.747 5.754 5.754 0 0 1-5.746 5.747 5.754 5.754 0 0 1-5.746-5.747 5.748 5.748 0 0 1 2.951-5.017l-.356-.994a6.8 6.8 0 0 0-3.64 6.011 6.8 6.8 0 0 0 6.791 6.791 6.8 6.8 0 0 0 6.791-6.791 6.8 6.8 0 0 0-6.791-6.79z" class="prefix__cls-1" data-name="Path 3493" transform="translate(-1605.319 11069.832)"/>
    <path id="prefix__Path_3494" d="M1592.453-11029.855a6.768 6.768 0 0 0-1.707-3.847l-.7.785a5.727 5.727 0 0 1 1.35 3.062z" class="prefix__cls-1" data-name="Path 3494" transform="translate(-1578.907 11065.564)"/>
    <path id="prefix__Path_3495" d="M1578.488-11038.991a6.747 6.747 0 0 0-3.9-1.243 6.78 6.78 0 0 0-1.546.185l.323.994a5.738 5.738 0 0 1 1.223-.135 5.717 5.717 0 0 1 3.208.982z" class="prefix__cls-1" data-name="Path 3495" transform="translate(-1567.794 11069.832)"/>
    <path id="prefix__Path_3496" d="M1570.378-11031.553a5.752 5.752 0 0 1-5.676 4.894 5.754 5.754 0 0 1-5.746-5.747 5.747 5.747 0 0 1 3.4-5.238l-.326-1a6.8 6.8 0 0 0-4.118 6.24 6.8 6.8 0 0 0 6.791 6.791 6.8 6.8 0 0 0 6.732-5.937z" class="prefix__cls-1" data-name="Path 3496" transform="translate(-1557.911 11068.794)"/>
    <rect id="prefix__Rectangle_1094" width="7.493" height="1.061" class="prefix__cls-1" data-name="Rectangle 1094" rx=".2" transform="translate(.766 26.874)"/>
    <rect id="prefix__Rectangle_1095" width="7.493" height="1.061" class="prefix__cls-1" data-name="Rectangle 1095" rx=".2" transform="translate(1.811 25.395)"/>
    <path id="prefix__Path_3497" d="M1610.765-11087.174a1.667 1.667 0 0 0 1.869-.221l.222-1.317a.769.769 0 0 1 .251-.448 1.634 1.634 0 0 0-.785-.931 16.874 16.874 0 0 1-7.428-8.425 1.649 1.649 0 0 0-2-.948 1.652 1.652 0 0 0-1.058 2.2 20.185 20.185 0 0 0 8.934 10.093z" class="prefix__cls-1" data-name="Path 3497" transform="translate(-1586.525 11108.573)"/>
    <path id="prefix__Path_3498" d="M1584.558-11060.156h-3.358a.523.523 0 0 0-.523.522.523.523 0 0 0 .523.523h5.279z" class="prefix__cls-1" data-name="Path 3498" transform="translate(-1572.785 11082.847)"/>
    <path id="prefix__Path_3499" d="M1632.08-11053.278a.07.07 0 0 1-.051-.043l-2.911-8.128a.174.174 0 0 0-.223-.105l-1.49.534a.175.175 0 0 1-.223-.107l-1.526-4.294a.173.173 0 0 1 .105-.222l1.078-.388a.173.173 0 0 0 .113-.135l.4-2.374a.347.347 0 0 0-.285-.4.347.347 0 0 0-.4.284l-.332 1.972a.175.175 0 0 1-.113.135l-1.35.485a.174.174 0 0 0-.105.222l.822 2.332a.174.174 0 0 1-.112.224l-2 .535a3.9 3.9 0 0 1-.093.592l-.13.541 2.747-.736v.007l-3.324 3.117-.462 1.925 4.112-3.815a.07.07 0 0 1 .119.021l.308.862a.173.173 0 0 0 .223.1l1.163-.416a.175.175 0 0 1 .223.105l2.675 7.475a.068.068 0 0 1-.012.066 1.089 1.089 0 0 0-.234.94 1.11 1.11 0 0 0 .884.851 1.105 1.105 0 0 0 1.3-1.088 1.1 1.1 0 0 0-.896-1.074z" class="prefix__cls-1" data-name="Path 3499" transform="translate(-1599.925 11088.588)"/>
    <path id="prefix__Path_3500" d="M1572.24-11050.684l3.391-.908.276-1.148-4.032 1.079a.173.173 0 0 1-.216-.107l-1.49-4.167h-1.111l1.724 4.816a.176.176 0 0 1-.034.175l-1.226 1.382-1.706-1.525a.353.353 0 0 0 .178-.3.172.172 0 0 0 0-.042.36.36 0 0 0-.355-.319l-9.241.018a.351.351 0 0 0-.35.352.351.351 0 0 0 .351.352h3.8l2.067 6.36a1.108 1.108 0 0 0-.565.778 1.1 1.1 0 0 0 1.087 1.295 1.1 1.1 0 0 0 1-.627.065.065 0 0 1 .06-.039h6.147a2.059 2.059 0 0 1-.048-.436 2.007 2.007 0 0 1 .019-.261h-6.051a.07.07 0 0 1-.067-.05 1.035 1.035 0 0 0-.08-.2.07.07 0 0 1 .01-.078l5.236-5.891a.07.07 0 0 1 .118.022l1.705 4.768a2.032 2.032 0 0 1 .983-.35l-1.688-4.724a.175.175 0 0 1 .108-.225zm-6.984 5.935a.066.066 0 0 1-.075.017 1.113 1.113 0 0 0-.582-.053l-2.03-6.247h4.821l1.918 1.713z" class="prefix__cls-1" data-name="Path 3500" transform="translate(-1557.999 11080.089)"/>
    <rect id="prefix__Rectangle_1096" width="7.493" height="1.061" class="prefix__cls-1" data-name="Rectangle 1096" rx=".2" transform="translate(.07 23.916)"/>
    <path id="prefix__Path_3501" d="M1596.031-11072.669l-5.137-2.792 1.739-3.068c-.111-.139-.218-.281-.325-.423a8.691 8.691 0 0 1-5.042 1.372 14.638 14.638 0 0 1-3.337-.395 3.481 3.481 0 0 0 1.439 4.493l.3.172a3.374 3.374 0 0 0 .453.211l6.89 3.746a.522.522 0 0 1 .259.581l-1.678 6.975a2.178 2.178 0 0 0 1.606 2.625 2.172 2.172 0 0 0 2.625-1.606l1.927-8.017a3.484 3.484 0 0 0-1.719-3.874z" class="prefix__cls-1" data-name="Path 3501" transform="translate(-1574.696 11095.126)"/>
    <path id="prefix__Path_3502" d="M1580.981-11095.158c-2.779 1.887-6.933.986-7.694.8l2.737-4.873a.069.069 0 0 0-.027-.095l-5.8-3.261a.07.07 0 0 0-.095.026l-2.975 5.3a.07.07 0 0 0 .027.095l5.3 2.963a4.585 4.585 0 0 0 1.371.5 14.3 14.3 0 0 0 2.669.261 8.475 8.475 0 0 0 4.793-1.287c-.104-.145-.207-.285-.306-.429z" class="prefix__cls-1" data-name="Path 3502" transform="translate(-1563.923 11110.572)"/>
    <path id="prefix__Path_3503" d="M1591.5-11096.824a5.992 5.992 0 0 0-1.957.6l-3.021 5.331a13.848 13.848 0 0 0 2.643.266 7.447 7.447 0 0 0 4.266-1.111 21.02 21.02 0 0 1-1.908-3.6 2.047 2.047 0 0 1-.023-1.486z" class="prefix__cls-1" data-name="Path 3503" transform="translate(-1576.603 11106.802)"/>
    <path id="prefix__Path_3504" d="M1603.108-11103.181l-.3-.172a3.483 3.483 0 0 0-4.337.735 7.9 7.9 0 0 1 1.717-.189c.493 0 .9.064 1.069.064a2.075 2.075 0 0 1 .9.2 2.048 2.048 0 0 1 1.005 1.069 17.01 17.01 0 0 0 1.416 2.719 3.482 3.482 0 0 0-1.47-4.426z" class="prefix__cls-1" data-name="Path 3504" transform="translate(-1584.405 11111.363)"/>
    <path id="prefix__Path_3505" d="M1585.727-11104.025a7.065 7.065 0 0 0-3.192.771.063.063 0 0 1-.064 0l-5.435-3.054a.071.071 0 0 0-.095.027l-.452.8a.072.072 0 0 0 .027.1l5.8 3.26a.07.07 0 0 0 .095-.026l.359-.64a6.439 6.439 0 0 1 2.4-.686 2.063 2.063 0 0 1 .557-.552z" class="prefix__cls-1" data-name="Path 3505" transform="translate(-1570.043 11113.003)"/>
</svg>
