<svg xmlns="http://www.w3.org/2000/svg" id="prefix__Group_1807" width="53.949" height="27.646" data-name="Group 1807" viewBox="0 0 53.949 27.646">
    <defs>
        <style>
            .prefix__cls-1{fill:#4d4d4d}
        </style>
    </defs>
    <g id="prefix__Group_1804" data-name="Group 1804" transform="translate(37.697 16.06)">
        <path id="prefix__Path_3482" d="M1255.254-11056.879a5.746 5.746 0 0 0-5.686 5.8 5.744 5.744 0 0 0 5.686 5.789 5.749 5.749 0 0 0 5.692-5.789 5.751 5.751 0 0 0-5.692-5.8zm0 9.357a3.523 3.523 0 0 1-3.475-3.561 3.525 3.525 0 0 1 3.475-3.569 3.533 3.533 0 0 1 3.484 3.569 3.531 3.531 0 0 1-3.484 3.562z" class="prefix__cls-1" data-name="Path 3482" transform="translate(-1249.568 11056.879)"/>
    </g>
    <g id="prefix__Group_1805" data-name="Group 1805" transform="translate(4.493 16.06)">
        <path id="prefix__Path_3483" d="M1159.482-11056.879a5.746 5.746 0 0 0-5.686 5.8 5.744 5.744 0 0 0 5.686 5.789 5.75 5.75 0 0 0 5.693-5.789 5.751 5.751 0 0 0-5.693-5.8zm0 9.357a3.523 3.523 0 0 1-3.475-3.561 3.526 3.526 0 0 1 3.475-3.569 3.533 3.533 0 0 1 3.484 3.569 3.531 3.531 0 0 1-3.484 3.562z" class="prefix__cls-1" data-name="Path 3483" transform="translate(-1153.796 11056.879)"/>
    </g>
    <g id="prefix__Group_1806" data-name="Group 1806">
        <path id="prefix__Path_3484" d="M1194.711-11087.7c-.143-.3-.742-.65-.924-.916-.3-.441-.644-1.482-.917-1.945a9.473 9.473 0 0 0-1.019-1.3 9.377 9.377 0 0 0-1.371-1.072 13.4 13.4 0 0 0-2.757-1.1 34.293 34.293 0 0 0-3.449-.441l-1.6-.016-3.256-1.707-3.716-2.339-4.464-2.713s-2.1-.993-2.821-1.267a14.706 14.706 0 0 0-1.612-.453 11.458 11.458 0 0 0-1.314-.178c-1.091-.076-4.372 0-4.372 0h-3.145s-2.653-.007-3.535-.024a11.668 11.668 0 0 0-1.443 0 14.761 14.761 0 0 0-2.209.585 13.873 13.873 0 0 0-1.9.863 15.8 15.8 0 0 0-2.522 1.972 17.1 17.1 0 0 0-1.983 2.55 36.849 36.849 0 0 0-1.891 3.869c-.137.345-.486 1.4-.486 1.4l-1.171 1.257v3.548l.174 3.659.422 1.563.644.563h2.082c0-.034-.022-.067-.022-.1a7.041 7.041 0 0 1 6.968-7.111 7.04 7.04 0 0 1 6.965 7.111.6.6 0 0 1-.019.1h18.906c0-.034-.019-.067-.019-.1a7.04 7.04 0 0 1 6.965-7.111 7.041 7.041 0 0 1 6.969 7.111c0 .03-.022.063-.022.1h3.256l.644-4.972a4.658 4.658 0 0 0-.036-1.386zm-19.781-6.076h-26.6l-.777-.45-.118-.436.118-.466 1.5-2.12 1.358-1.339 2-1.279s1.616-.587 2.177-.687a24.382 24.382 0 0 1 3.236-.158c1.4-.007 5.582 0 5.582 0s2.215.158 2.929.332a27.807 27.807 0 0 1 2.666 1.06l2.345 1.292 2.887 1.828a8.3 8.3 0 0 1 1.181.765 1.475 1.475 0 0 1 .378 1.016c-.076.256-.863.639-.863.639z" class="prefix__cls-1" data-name="Path 3484" transform="translate(-1140.837 11103.2)"/>
    </g>
</svg>
