<svg xmlns="http://www.w3.org/2000/svg" id="prefix__Group_1745" width="19.384" height="19.384" data-name="Group 1745" viewBox="0 0 19.384 19.384">
    <defs>
        <style>
            .prefix__cls-1{fill:#666}
        </style>
    </defs>
    <path id="prefix__Path_2960" d="M4917.9-4340.255l-.645 3.143a.272.272 0 0 0 .316.317l3.144-.645.138-.075 6.759-6.759a.135.135 0 0 0 0-.192l-2.687-2.687a.136.136 0 0 0-.192 0l-6.759 6.76z" class="prefix__cls-1" data-name="Path 2960" transform="translate(-4911.434 4350.358)"/>
    <path id="prefix__Path_2961" d="M4917.524-4341.045h-1.163a.387.387 0 0 0-.387.388v5.428h-13.569v-13.571h4.458a.387.387 0 0 0 .388-.387v-1.163a.387.387 0 0 0-.388-.387h-5.428a.969.969 0 0 0-.969.969v15.507a.969.969 0 0 0 .969.969h15.507a.97.97 0 0 0 .97-.969v-6.4a.388.388 0 0 0-.388-.384z" class="prefix__cls-1" data-name="Path 2961" transform="translate(-4900.467 4352.675)"/>
    <path id="prefix__Path_2962" d="M4947.626-4354.213l-1.918-1.919a.678.678 0 0 0-.96 0l-1.417 1.416a.193.193 0 0 0 0 .274l2.6 2.6a.194.194 0 0 0 .274 0l1.417-1.417a.677.677 0 0 0 .004-.954z" class="prefix__cls-1" data-name="Path 2962" transform="translate(-4928.44 4356.331)"/>
</svg>
