<svg xmlns="http://www.w3.org/2000/svg" width="17.929" height="18.733" viewBox="0 0 17.929 18.733">
    <path id="prefix__Path_2379" fill="#1e85b3" fill-rule="evenodd" d="M-3430.242-9934.38h-1.713v1.482a.192.192 0 0 1-.191.192.191.191 0 0 1-.19-.192v-1.483l-7.148-.007v1.484a.191.191 0 0 1-.193.19.191.191 0 0 1-.191-.19v-1.484h-1.713a.769.769 0 0 0-.541.225.77.77 0 0 0-.226.541l-.011 12.265a.758.758 0 0 0 .225.54.769.769 0 0 0 .541.225H-3434.262c-.029-.063-.056-.126-.083-.188a4.911 4.911 0 0 1-.266-.856l-6.731-.006a.191.191 0 0 1-.192-.19l.008-9.1a.193.193 0 0 1 .192-.191l10.839.01a.193.193 0 0 1 .191.192v3.331a4.814 4.814 0 0 1 .545-.03c.093 0 .187 0 .279.008v-6.001a.771.771 0 0 0-.224-.543.766.766 0 0 0-.541-.224zm-.08 12.557a.2.2 0 0 1-.271 0 .192.192 0 0 1 0-.271l.546-.545-2.242-1.677a.192.192 0 0 1-.039-.268.19.19 0 0 1 .268-.039l2.042 1.527-.083-.6a.19.19 0 0 1 .163-.216.189.189 0 0 1 .215.163l.094.687 2.379-2.375a.19.19 0 0 1 .27 0 .189.189 0 0 1 0 .27l-2.485 2.48.282.212a.188.188 0 0 1 .038.266.191.191 0 0 1-.267.041l-.1-.08.442 3.2a.193.193 0 0 1-.164.217.19.19 0 0 1-.215-.163l-.449-3.257-.422.422zm-3.516 1.235c-.056-.108-.107-.219-.155-.332a4.647 4.647 0 0 1-.271-.926.16.16 0 0 0 0-.02 4.745 4.745 0 0 1-.068-.8 4.553 4.553 0 0 1 1.341-3.23 4.607 4.607 0 0 1 1.485-.991 4.559 4.559 0 0 1 1.748-.344 4.556 4.556 0 0 1 1.748.347 4.536 4.536 0 0 1 1.482.994 4.559 4.559 0 0 1 .993 1.484 4.565 4.565 0 0 1 .344 1.748 4.573 4.573 0 0 1-.347 1.75 4.6 4.6 0 0 1-1 1.482 4.581 4.581 0 0 1-1.484.991 4.558 4.558 0 0 1-1.749.344 4.563 4.563 0 0 1-1.748-.348 4.561 4.561 0 0 1-1.482-.993 4.615 4.615 0 0 1-.778-1.039c0-.009-.009-.016-.014-.025l-.007-.013v-.012zm-.226.382l-7.53-.007a1.147 1.147 0 0 1-.808-.334 1.145 1.145 0 0 1-.337-.811l.011-12.266a1.143 1.143 0 0 1 .338-.811 1.143 1.143 0 0 1 .811-.336h1.713v-1.483a.192.192 0 0 1 .191-.191.193.193 0 0 1 .192.191v1.484l7.148.007v-1.485a.191.191 0 0 1 .191-.189.191.191 0 0 1 .191.191v1.483h1.713a1.143 1.143 0 0 1 .811.338 1.146 1.146 0 0 1 .336.812l-.005 6.037a4.966 4.966 0 0 1 1.232.333 4.923 4.923 0 0 1 1.607 1.078 4.907 4.907 0 0 1 1.074 1.609 4.916 4.916 0 0 1 .374 1.892 4.922 4.922 0 0 1-.377 1.895 4.942 4.942 0 0 1-1.077 1.607 4.925 4.925 0 0 1-1.609 1.074 4.953 4.953 0 0 1-1.894.374 4.916 4.916 0 0 1-1.893-.377 4.95 4.95 0 0 1-1.608-1.077 4.889 4.889 0 0 1-.793-1.039zm.8-5.964a4.935 4.935 0 0 0-1.077 1.605c-.023.057-.046.114-.068.174h-.756v-1.792h1.908l-.009.012zm.443-.394h-2.342v-1.792h2.734v1.515a4.657 4.657 0 0 0-.392.277zm.775-.5v-1.482a.191.191 0 0 0-.191-.192h-3.116a.19.19 0 0 0-.191.19v4.351a.192.192 0 0 0 .191.191h.823a4.963 4.963 0 0 0-.185 1.338 4.991 4.991 0 0 0 .042.655h-6.477l.008-8.718 10.457.009v3.197a4.971 4.971 0 0 0-.966.287c-.134.056-.264.115-.392.182zm-4.437 2.673a.191.191 0 0 1 .191.19.192.192 0 0 1-.192.191h-3.115a.192.192 0 0 1-.192-.191v-2.176a.19.19 0 0 1 .192-.189h2.924v-1.792h-2.924a.192.192 0 0 1-.192-.192.192.192 0 0 1 .192-.19h3.115a.192.192 0 0 1 .191.192v2.175a.193.193 0 0 1-.192.192h-2.924v1.792z" data-name="Path 2379" transform="translate(3442.741 9936.446)"/>
</svg>
