<svg xmlns="http://www.w3.org/2000/svg" id="prefix__Group_1738" width="19.169" height="19.817" data-name="Group 1738" viewBox="0 0 19.169 19.817">
    <defs>
        <style>
            .prefix__cls-1{fill:#666}
        </style>
    </defs>
    <path id="prefix__Path_2881" d="M9996.56-4382.071v4.527h-13.847v-4.527h-2.661v5.858a1.331 1.331 0 0 0 1.333 1.331h16.5a1.33 1.33 0 0 0 1.332-1.331v-5.858z" class="prefix__cls-1" data-name="Path 2881" transform="translate(-9980.052 4394.7)"/>
    <path id="prefix__Path_2882" d="M9999.376-4406.366l-3.811-4.6s-.579-.548.05-.548h2.147v-6.7s-.086-.327.405-.327h3.023c.354 0 .347.274.347.274v6.617h1.98c.763 0 .189.573.189.573s-3.242 4.3-3.694 4.755a.424.424 0 0 1-.636-.044z" class="prefix__cls-1" data-name="Path 2882" transform="translate(-9990.035 4418.546)"/>
</svg>
