<svg xmlns="http://www.w3.org/2000/svg" width="10.926" height="11.295" viewBox="0 0 10.926 11.295">
    <defs>
        <style>
            .prefix__cls-1{fill:#666}
        </style>
    </defs>
    <g id="prefix__Group_1742" data-name="Group 1742">
        <path id="prefix__Path_2857" d="M10041.217-4622.3v2.581h-7.891v-2.581h-1.518v3.339a.759.759 0 0 0 .761.759h9.406a.758.758 0 0 0 .759-.759v-3.339z" class="prefix__cls-1" data-name="Path 2857" transform="translate(-10031.809 4629.501)"/>
        <path id="prefix__Path_2858" d="M10042.825-4636.15l-2.171-2.624s-.331-.312.027-.312h1.223v-3.82s-.048-.186.232-.186h1.724c.2 0 .2.157.2.157v3.77h1.129c.435 0 .108.327.108.327s-1.849 2.453-2.106 2.71a.24.24 0 0 1-.366-.022z" class="prefix__cls-1" data-name="Path 2858" transform="translate(-10037.5 4643.092)"/>
    </g>
</svg>
