<svg xmlns="http://www.w3.org/2000/svg" width="14.214" height="14.213" viewBox="0 0 14.214 14.213">
    <defs>
        <style>
            .prefix__cls-2{fill:#fff}
        </style>
    </defs>
    <g id="prefix__Group_1078" data-name="Group 1078" opacity="0.5">
        <g id="prefix__Group_1077" data-name="Group 1077">
            <path id="prefix__Path_2754" d="M-2096.4-7526.742l-.473 2.3a.2.2 0 0 0 .233.232l2.3-.473.1-.055 4.956-4.957a.1.1 0 0 0 0-.141l-1.97-1.969a.1.1 0 0 0-.141 0l-4.956 4.957z" class="prefix__cls-2" data-name="Path 2754" transform="translate(2101.136 7534.15)"/>
            <path id="prefix__Path_2755" d="M-2096.675-7527.322h-.852a.284.284 0 0 0-.284.284v3.98h-9.949v-9.949h3.269a.284.284 0 0 0 .284-.285v-.853a.284.284 0 0 0-.284-.284h-3.979a.71.71 0 0 0-.711.71v11.37a.711.711 0 0 0 .711.711h11.37a.711.711 0 0 0 .711-.711v-4.69a.284.284 0 0 0-.286-.283z" class="prefix__cls-2" data-name="Path 2755" transform="translate(2109.182 7535.85)"/>
            <path id="prefix__Path_2756" d="M-2074.592-7536.979l-1.406-1.407a.5.5 0 0 0-.7 0l-1.039 1.039a.141.141 0 0 0 0 .2l1.909 1.91a.143.143 0 0 0 .2 0l1.038-1.039a.5.5 0 0 0-.002-.703z" class="prefix__cls-2" data-name="Path 2756" transform="translate(2088.66 7538.532)"/>
        </g>
    </g>
</svg>
