<svg xmlns="http://www.w3.org/2000/svg" width="14.399" height="14.4" viewBox="0 0 14.399 14.4">
    <defs>
        <style>
            .prefix__cls-1{fill:#b3b3b3}
        </style>
    </defs>
    <g id="prefix__Group_1772" data-name="Group 1772" transform="translate(-1248.824 -292.366)">
        <path id="prefix__Path_2947" d="M6395.969-4686.125l-.479 2.334a.2.2 0 0 0 .235.235l2.335-.479.1-.055 5.022-5.022a.1.1 0 0 0 0-.143l-2-2a.1.1 0 0 0-.143 0l-5.021 5.021z" class="prefix__cls-1" data-name="Path 2947" transform="translate(-5142.343 4985.998)"/>
        <path id="prefix__Path_2948" d="M6395.691-4686.713h-.863a.287.287 0 0 0-.288.288v4.033h-10.081v-10.081h3.313a.287.287 0 0 0 .288-.288v-.864a.287.287 0 0 0-.288-.288h-4.032a.719.719 0 0 0-.72.72v11.521a.72.72 0 0 0 .72.72h11.521a.72.72 0 0 0 .72-.72v-4.753a.287.287 0 0 0-.29-.288z" class="prefix__cls-1" data-name="Path 2948" transform="translate(-5134.196 4987.719)"/>
        <path id="prefix__Path_2949" d="M6418.053-4696.5l-1.425-1.426a.506.506 0 0 0-.713 0l-1.052 1.052a.144.144 0 0 0 0 .2l1.935 1.935a.145.145 0 0 0 .2 0l1.052-1.053a.505.505 0 0 0 .003-.708z" class="prefix__cls-1" data-name="Path 2949" transform="translate(-5154.977 4990.435)"/>
    </g>
</svg>
