<svg xmlns="http://www.w3.org/2000/svg" id="prefix__email" width="24.709" height="24.709" viewBox="0 0 24.709 24.709">
    <defs>
        <style>
            .prefix__cls-3{fill:#4c6c7d}.prefix__cls-4{fill:#fff}
        </style>
    </defs>
    <path id="prefix__Path_3884" fill="#008dc2" d="M-3353.4-11462.011a1.931 1.931 0 0 1 1.931 1.931v1.93h-3.861v-1.93a1.93 1.93 0 0 1 1.93-1.931z" data-name="Path 3884" transform="translate(3376.176 11462.011)"/>
    <path id="prefix__Path_3885" fill="#00aeef" d="M-3402.008-11462.011h16.6a1.931 1.931 0 0 0-1.93 1.931v10.424l-8.494 4.633-8.494-4.633v-10.038a2.313 2.313 0 0 1 2.318-2.317z" data-name="Path 3885" transform="translate(3408.186 11462.011)"/>
    <path id="prefix__Path_3886" d="M-3403.106-11426.584a1.771 1.771 0 0 1-.973-.291l-11.022-6.986a.774.774 0 0 1-.239-1.066.772.772 0 0 1 1.066-.239l11.032 6.994a.2.2 0 0 0 .261.008l3-1.9a.771.771 0 0 1 1.065.239.773.773 0 0 1-.239 1.065l-2.984 1.891a1.749 1.749 0 0 1-.967.285zm6.143-3.71a.77.77 0 0 1-.653-.358.773.773 0 0 1 .239-1.066l5.44-3.448a.773.773 0 0 1 1.065.239.773.773 0 0 1-.239 1.066l-5.439 3.447a.765.765 0 0 1-.413.12z" class="prefix__cls-3" data-name="Path 3886" transform="translate(3415.461 11444.553)"/>
    <path id="prefix__Path_3887" d="M-3393.067-11419.842h-20.076a2.32 2.32 0 0 1-2.316-2.316v-12.354a.772.772 0 0 1 .772-.772.772.772 0 0 1 .772.772v12.354a.772.772 0 0 0 .772.771h20.076a.772.772 0 0 0 .772-.771v-12.354a.772.772 0 0 1 .772-.772.772.772 0 0 1 .772.772v12.354a2.32 2.32 0 0 1-2.316 2.316z" class="prefix__cls-3" data-name="Path 3887" transform="translate(3415.46 11444.551)"/>
    <path id="prefix__Path_3888" d="M-3350.784-11436.65a.771.771 0 0 1-.546-.227l-1.545-1.545a.771.771 0 0 1 0-1.091.772.772 0 0 1 1.092 0l1.545 1.544a.772.772 0 0 1 0 1.092.772.772 0 0 1-.546.227z" class="prefix__cls-3" data-name="Path 3888" transform="translate(3374.721 11447.461)"/>
    <path id="prefix__Path_3889" d="M-3414.688-11436.65a.772.772 0 0 1-.546-.227.772.772 0 0 1 0-1.092l1.544-1.544a.772.772 0 0 1 1.092 0 .77.77 0 0 1 0 1.091l-1.544 1.545a.771.771 0 0 1-.546.227z" class="prefix__cls-3" data-name="Path 3889" transform="translate(3415.461 11447.461)"/>
    <path id="prefix__Path_3890" d="M-3385.378-11435.968h-9.266a.772.772 0 0 1-.772-.772.772.772 0 0 1 .772-.772h9.266a.772.772 0 0 1 .772.772.772.772 0 0 1-.772.772z" class="prefix__cls-4" data-name="Path 3890" transform="translate(3402.365 11446.006)"/>
    <path id="prefix__Path_3891" d="M-3385.378-11449.33h-9.266a.772.772 0 0 1-.772-.773.772.772 0 0 1 .772-.771h9.266a.772.772 0 0 1 .772.771.772.772 0 0 1-.772.773z" class="prefix__cls-4" data-name="Path 3891" transform="translate(3402.365 11454.735)"/>
</svg>
