<svg xmlns="http://www.w3.org/2000/svg" width="20.869" height="13.913" viewBox="0 0 20.869 13.913">
    <path id="prefix__Path_2297" fill="gray" d="M1304.016-9582.762a2.612 2.612 0 0 1-2.609 2.607 2.612 2.612 0 0 1-2.609-2.607 2.611 2.611 0 0 1 2.609-2.608 2.611 2.611 0 0 1 2.609 2.608zm7.826-.392s-3.7 7.348-10.422 7.348c-6.244 0-10.448-7.348-10.448-7.348s3.866-6.565 10.448-6.565c6.69 0 10.422 6.566 10.422 6.566zm-6.087.392a4.354 4.354 0 0 0-4.348-4.349 4.354 4.354 0 0 0-4.348 4.349 4.353 4.353 0 0 0 4.348 4.348 4.353 4.353 0 0 0 4.348-4.348z" data-name="Path 2297" transform="translate(-1290.972 9589.719)"/>
</svg>
