<svg xmlns="http://www.w3.org/2000/svg" width="34.78" height="38.479" viewBox="0 0 34.78 38.479">
    <defs>
        <style>
            .prefix__cls-1{fill:#f2f2f2}
        </style>
    </defs>
    <g id="prefix__Group_1076" data-name="Group 1076">
        <path id="prefix__Path_2745" d="M-2344.292-7480.358c-.839-.833-2.907-1.581-6.086-1.581s-5.405.538-6.123 1.6l-.074.119v3.167l.125.124c.7.833 3.2 1.323 6.072 1.323s5.281-.4 5.982-1.233l.215-.214v-3.167zm-6.176 2.129c-3.147 0-5.7-.78-5.7-1.742s2.552-1.742 5.7-1.742 5.7.78 5.7 1.742-2.553 1.742-5.701 1.742z" class="prefix__cls-1" data-name="Path 2745" transform="translate(2371.14 7497.718)"/>
        <path id="prefix__Path_2746" d="M-2353.562-7468.645c-1.046-1.039-3.624-1.969-7.587-1.969s-6.738.669-7.634 1.995l-.092.148v3.947l.155.154c.873 1.04 3.987 1.65 7.57 1.65s6.584-.5 7.457-1.537l.268-.268v-3.947zm-7.7 2.655c-3.924 0-7.1-.972-7.1-2.172s3.181-2.17 7.1-2.17 7.1.972 7.1 2.17-3.175 2.172-7.099 2.172z" class="prefix__cls-1" data-name="Path 2746" transform="translate(2379.179 7490.317)"/>
        <path id="prefix__Path_2747" d="M-2324.619-7445.13c-.053-1.473-1.3-3.915-4.191-6.623s-5.376-4.118-6.935-3.763l-.168.046-2.7 2.881.007.219c-.073 1.355 1.783 3.928 4.4 6.378s5.146 4.137 6.493 3.976l.378-.012 2.7-2.881zm-7.434-3.326c-2.864-2.682-4.521-5.566-3.7-6.44s3.806.59 6.669 3.272 4.521 5.566 3.7 6.441-3.805-.591-6.669-3.273z" class="prefix__cls-1" data-name="Path 2747" transform="translate(2359.399 7480.484)"/>
        <path id="prefix__Path_2748" d="M-2381.558-7456.363c-1.264 0-3.4.981-5.82 3.369s-3.711 4.469-3.46 5.816l.034.147 2.378 2.409h.188c1.159.107 3.428-1.4 5.616-3.554s3.721-4.271 3.628-5.431v-.325l-2.378-2.411zm-3.1 6.26c-2.4 2.364-4.924 3.687-5.646 2.955s.634-3.242 3.03-5.607 4.924-3.687 5.647-2.954-.637 3.242-3.033 5.609z" class="prefix__cls-1" data-name="Path 2748" transform="translate(2393.554 7481.003)"/>
        <path id="prefix__Path_2749" d="M-2354.884-7440.628c-.962-1.021-3.385-1.987-7.154-2.112s-6.429.426-7.322 1.657l-.092.138-.124 3.754.142.152c.8 1.016 3.74 1.694 7.148 1.807s6.278-.267 7.141-1.227l.263-.246.124-3.754zm-7.406 2.282c-3.731-.124-6.727-1.148-6.689-2.288s3.094-1.965 6.825-1.841 6.727 1.148 6.689 2.288-3.093 1.964-6.825 1.841z" class="prefix__cls-1" data-name="Path 2749" transform="translate(2379.637 7472.11)"/>
        <path id="prefix__Path_2750" d="M-2352.047-7451.678c-.744-.79-2.619-1.537-5.535-1.633s-4.975.329-5.666 1.282l-.071.106-.1 2.9.11.118c.617.785 2.894 1.311 5.531 1.4s4.857-.207 5.525-.949l.2-.191.1-2.9zm-5.73 1.766c-2.888-.1-5.2-.888-5.176-1.77s2.394-1.52 5.281-1.424 5.2.888 5.175 1.77-2.393 1.52-5.28 1.424z" class="prefix__cls-1" data-name="Path 2750" transform="translate(2375.61 7479.016)"/>
        <path id="prefix__Path_2751" d="M-2393.375-7496.955l-5.247 6.423 2.686.135v10.9l1.837.18 3.438-3.3.181-7.913h2.163z" class="prefix__cls-1" data-name="Path 2751" transform="translate(2398.622 7507.534)"/>
        <path id="prefix__Path_2752" d="M-2371.9-7508.677a10.623 10.623 0 0 1 7.816-3.779l.13-5.685h3.15l-7.366-9.354-7.642 9.354 3.912.2z" class="prefix__cls-1" data-name="Path 2752" transform="translate(2383.713 7527.495)"/>
        <path id="prefix__Path_2753" d="M-2324.189-7503.262l-5.247-6.423-5.058 6.423h2.163l.063 2.734a7.5 7.5 0 0 1 5.27 7.159 7.523 7.523 0 0 1-.091 1.166l.214-.021v-10.9z" class="prefix__cls-1" data-name="Path 2753" transform="translate(2356.708 7515.854)"/>
    </g>
</svg>
