<svg xmlns="http://www.w3.org/2000/svg" width="34.03" height="32.068" viewBox="0 0 34.03 32.068">
    <defs>
        <style>
            .prefix__cls-1,.prefix__cls-2{fill:#fff}.prefix__cls-2{fill-rule:evenodd}
        </style>
    </defs>
    <g id="prefix__Group_1111" data-name="Group 1111">
        <g id="prefix__Group_1110" data-name="Group 1110">
            <path id="prefix__Path_2768" d="M-1677.476-7505.769h25.171a.853.853 0 0 1 .811.89.853.853 0 0 1-.811.889h-25.171a.852.852 0 0 1-.811-.889.853.853 0 0 1 .811-.89z" class="prefix__cls-1" data-name="Path 2768" transform="translate(1685.525 7509.194)"/>
            <g id="prefix__Group_1095" data-name="Group 1095" transform="translate(5.912 1.519)">
                <path id="prefix__Path_2769" d="M-1656.913-7491.083a.6.6 0 0 1-.084-.006h-19.369v.014h-.3a2.781 2.781 0 0 1-2.658-2.694.249.249 0 0 1 0-.027l-2.7-17.4h1.259l2.389 15.369.016-.014a10.186 10.186 0 0 0 .624 2.507 1.78 1.78 0 0 0 1.293 1v-.014h19.566v.006a.621.621 0 0 1 .581.626.622.622 0 0 1-.617.633z" class="prefix__cls-2" data-name="Path 2769" transform="translate(1682.055 7511.223)"/>
                <path id="prefix__Path_2770" d="M-1676.4-7491.1h-.323a2.792 2.792 0 0 1-2.684-2.717.07.07 0 0 1 0-.021v-.008l-2.709-17.426h1.313v.022l2.381 15.322.015-.013.008.045a10.775 10.775 0 0 0 .615 2.493l.006.007a1.742 1.742 0 0 0 1.243.984v-.007h19.618v.008a.649.649 0 0 1 .582.65.649.649 0 0 1-.643.654.645.645 0 0 1-.087-.006h-19.34zm-5.654-20.121l2.7 17.37v.016a.063.063 0 0 0 0 .011 2.742 2.742 0 0 0 2.632 2.671h.27v-.013h19.4a.715.715 0 0 0 .084.006.6.6 0 0 0 .59-.6.6.6 0 0 0-.556-.6h-19.538v.02l-.032-.006a1.8 1.8 0 0 1-1.308-1.014 9.268 9.268 0 0 1-.621-2.475l-.017.014-2.393-15.393z" class="prefix__cls-1" data-name="Path 2770" transform="translate(1682.113 7511.272)"/>
            </g>
            <path id="prefix__Path_2771" d="M-1677.228-7505.566h25a.813.813 0 0 1 .806.819.813.813 0 0 1-.806.819h-25a.813.813 0 0 1-.806-.819.812.812 0 0 1 .806-.819z" class="prefix__cls-1" data-name="Path 2771" transform="translate(1685.359 7509.062)"/>
            <path id="prefix__Path_2772" d="M-1677.427-7504.263h25.137a.858.858 0 0 1 .81.9.858.858 0 0 1-.81.9h-25.137a.858.858 0 0 1-.81-.9.858.858 0 0 1 .81-.9z" class="prefix__cls-2" data-name="Path 2772" transform="translate(1685.492 7508.21)"/>
            <g id="prefix__Group_1096" data-name="Group 1096" transform="translate(7.507 21.054)">
                <path id="prefix__Path_2773" d="M-1652.7-7450.9a.557.557 0 0 1-.589.511h-21.585a2.456 2.456 0 0 1-2.625-2.241 2.455 2.455 0 0 1 2.625-2.24h20.459a.563.563 0 0 1 .574.521.57.57 0 0 1-.609.522.761.761 0 0 1-.083 0h-20.123a1.325 1.325 0 0 0-1.416 1.208 1.325 1.325 0 0 0 1.416 1.209h21.366a.558.558 0 0 1 .59.51z" class="prefix__cls-2" data-name="Path 2773" transform="translate(1677.505 7454.872)"/>
                <path id="prefix__Path_2774" d="M-1653.3-7450.39h-21.585a2.851 2.851 0 0 1-1.858-.657 2.249 2.249 0 0 1-.563-.714 1.949 1.949 0 0 1-.207-.874 1.949 1.949 0 0 1 .207-.873 2.249 2.249 0 0 1 .563-.712 2.848 2.848 0 0 1 1.858-.657h20.462a.566.566 0 0 1 .574.523.573.573 0 0 1-.611.525.64.64 0 0 1-.083-.006h-20.123a1.323 1.323 0 0 0-1.413 1.206 1.324 1.324 0 0 0 1.413 1.206h21.366a.562.562 0 0 1 .589.513.562.562 0 0 1-.589.52zm-21.585-4.481a2.844 2.844 0 0 0-1.854.655 2.232 2.232 0 0 0-.562.711 1.941 1.941 0 0 0-.206.87 1.949 1.949 0 0 0 .206.872 2.25 2.25 0 0 0 .562.712 2.847 2.847 0 0 0 1.854.655h21.585a.555.555 0 0 0 .587-.508.556.556 0 0 0-.587-.507h-21.363a1.329 1.329 0 0 1-1.418-1.212 1.329 1.329 0 0 1 1.418-1.21h20.123a.633.633 0 0 0 .083 0 .568.568 0 0 0 .606-.519.561.561 0 0 0-.572-.519z" class="prefix__cls-1" data-name="Path 2774" transform="translate(1677.509 7454.877)"/>
            </g>
            <g id="prefix__Group_1100" data-name="Group 1100" transform="translate(10.597 25.939)">
                <path id="prefix__Path_2775" d="M-1662.319-7440.773c-.2 3.525-.833 3.773-1.2 3.683a.87.87 0 0 1-.542-.474l-1.46-3.208z" class="prefix__cls-2" data-name="Path 2775" transform="translate(1666.587 7440.773)"/>
                <g id="prefix__Group_1097" data-name="Group 1097" transform="translate(.458 .483)">
                    <path id="prefix__Path_2776" d="M-1661.812-7436.647a2.724 2.724 0 0 1-2.724 2.724 2.724 2.724 0 0 1-2.724-2.724 2.724 2.724 0 0 1 2.724-2.724 2.724 2.724 0 0 1 2.724 2.724z" class="prefix__cls-2" data-name="Path 2776" transform="translate(1667.262 7439.374)"/>
                    <path id="prefix__Path_2777" d="M-1664.541-7433.925a2.72 2.72 0 0 1-1.062-.214 2.712 2.712 0 0 1-.866-.585 2.725 2.725 0 0 1-.585-.867 2.712 2.712 0 0 1-.214-1.061 2.71 2.71 0 0 1 .214-1.062 2.712 2.712 0 0 1 .585-.866 2.715 2.715 0 0 1 .866-.585 2.729 2.729 0 0 1 1.062-.213 2.729 2.729 0 0 1 1.061.213 2.728 2.728 0 0 1 .867.585 2.713 2.713 0 0 1 .584.866 2.7 2.7 0 0 1 .214 1.062 2.706 2.706 0 0 1-.214 1.061 2.726 2.726 0 0 1-.584.867 2.72 2.72 0 0 1-.867.585 2.721 2.721 0 0 1-1.061.214zm0-5.448a2.722 2.722 0 0 0-1.06.213 2.729 2.729 0 0 0-.865.583 2.715 2.715 0 0 0-.583.865 2.712 2.712 0 0 0-.214 1.06 2.711 2.711 0 0 0 .214 1.059 2.713 2.713 0 0 0 .583.865 2.732 2.732 0 0 0 .865.584 2.714 2.714 0 0 0 1.06.214 2.71 2.71 0 0 0 1.059-.214 2.736 2.736 0 0 0 .866-.584 2.715 2.715 0 0 0 .583-.865 2.7 2.7 0 0 0 .214-1.059 2.7 2.7 0 0 0-.214-1.06 2.717 2.717 0 0 0-.583-.865 2.733 2.733 0 0 0-.866-.583 2.719 2.719 0 0 0-1.059-.213z" class="prefix__cls-1" data-name="Path 2777" transform="translate(1667.267 7439.378)"/>
                </g>
                <g id="prefix__Group_1098" data-name="Group 1098" transform="translate(0 .677)">
                    <path id="prefix__Path_2778" d="M-1663.134-7436.09a2.724 2.724 0 0 1-2.724 2.724 2.724 2.724 0 0 1-2.724-2.724 2.724 2.724 0 0 1 2.724-2.723 2.723 2.723 0 0 1 2.724 2.723z" class="prefix__cls-2" data-name="Path 2778" transform="translate(1668.584 7438.815)"/>
                    <path id="prefix__Path_2779" d="M-1665.863-7433.368a2.719 2.719 0 0 1-1.061-.214 2.715 2.715 0 0 1-.866-.583 2.734 2.734 0 0 1-.584-.867 2.711 2.711 0 0 1-.214-1.062 2.711 2.711 0 0 1 .214-1.062 2.712 2.712 0 0 1 .584-.867 2.728 2.728 0 0 1 .866-.585 2.727 2.727 0 0 1 1.061-.213 2.727 2.727 0 0 1 1.061.213 2.729 2.729 0 0 1 .867.585 2.707 2.707 0 0 1 .584.867 2.707 2.707 0 0 1 .215 1.062 2.707 2.707 0 0 1-.215 1.062 2.729 2.729 0 0 1-.584.867 2.716 2.716 0 0 1-.867.583 2.718 2.718 0 0 1-1.061.214zm0-5.447a2.7 2.7 0 0 0-1.059.214 2.707 2.707 0 0 0-.865.583 2.718 2.718 0 0 0-.583.865 2.709 2.709 0 0 0-.214 1.06 2.709 2.709 0 0 0 .214 1.06 2.718 2.718 0 0 0 .583.865 2.714 2.714 0 0 0 .865.583 2.708 2.708 0 0 0 1.059.214 2.708 2.708 0 0 0 1.059-.214 2.713 2.713 0 0 0 .865-.583 2.709 2.709 0 0 0 .583-.865 2.707 2.707 0 0 0 .214-1.06 2.707 2.707 0 0 0-.214-1.06 2.709 2.709 0 0 0-.583-.865 2.707 2.707 0 0 0-.865-.583 2.7 2.7 0 0 0-1.059-.214z" class="prefix__cls-1" data-name="Path 2779" transform="translate(1668.589 7438.82)"/>
                </g>
                <g id="prefix__Group_1099" data-name="Group 1099" transform="translate(1.065 1.742)">
                    <path id="prefix__Path_2780" d="M-1662.175-7434.046a1.641 1.641 0 0 1-1.641 1.642 1.642 1.642 0 0 1-1.642-1.642 1.642 1.642 0 0 1 1.642-1.641 1.641 1.641 0 0 1 1.641 1.641z" class="prefix__cls-2" data-name="Path 2780" transform="translate(1665.478 7435.707)"/>
                    <path id="prefix__Path_2781" d="M-1663.854-7432.422a1.663 1.663 0 0 1-1.662-1.661 1.664 1.664 0 0 1 1.662-1.661 1.664 1.664 0 0 1 1.662 1.661 1.663 1.663 0 0 1-1.662 1.661zm0-3.283a1.623 1.623 0 0 0-1.622 1.622 1.623 1.623 0 0 0 1.622 1.621 1.623 1.623 0 0 0 1.622-1.621 1.623 1.623 0 0 0-1.622-1.617z" class="prefix__cls-1" data-name="Path 2781" transform="translate(1665.515 7435.744)"/>
                </g>
                <path id="prefix__Path_2782" d="M-1661.627-7432.884a1.026 1.026 0 0 1-1.026 1.025 1.025 1.025 0 0 1-1.025-1.025 1.025 1.025 0 0 1 1.025-1.025 1.025 1.025 0 0 1 1.026 1.025z" class="prefix__cls-2" data-name="Path 2782" transform="translate(1665.379 7436.287)"/>
                <path id="prefix__Path_2783" d="M-1663.565-7439.882c-.2 3.523-.833 3.77-1.2 3.682a.871.871 0 0 1-.542-.475l-1.46-3.207z" class="prefix__cls-2" data-name="Path 2783" transform="translate(1667.401 7440.19)"/>
                <path id="prefix__Path_2784" d="M-1661.059-7431.711a.343.343 0 0 1-.344.343.343.343 0 0 1-.343-.343.343.343 0 0 1 .343-.344.343.343 0 0 1 .344.344z" class="prefix__cls-2" data-name="Path 2784" transform="translate(1664.116 7435.075)"/>
            </g>
            <g id="prefix__Group_1104" data-name="Group 1104" transform="translate(25.348 25.939)">
                <path id="prefix__Path_2785" d="M-1619.733-7440.773c-.2 3.525-.832 3.773-1.2 3.683a.87.87 0 0 1-.542-.474l-1.46-3.208z" class="prefix__cls-2" data-name="Path 2785" transform="translate(1624 7440.773)"/>
                <g id="prefix__Group_1101" data-name="Group 1101" transform="translate(.458 .483)">
                    <path id="prefix__Path_2786" d="M-1619.225-7436.647a2.724 2.724 0 0 1-2.724 2.724 2.724 2.724 0 0 1-2.724-2.724 2.723 2.723 0 0 1 2.724-2.724 2.724 2.724 0 0 1 2.724 2.724z" class="prefix__cls-2" data-name="Path 2786" transform="translate(1624.675 7439.374)"/>
                    <path id="prefix__Path_2787" d="M-1621.954-7433.925a2.721 2.721 0 0 1-1.062-.214 2.717 2.717 0 0 1-.867-.585 2.729 2.729 0 0 1-.584-.867 2.71 2.71 0 0 1-.214-1.061 2.708 2.708 0 0 1 .214-1.062 2.716 2.716 0 0 1 .584-.866 2.725 2.725 0 0 1 .867-.585 2.729 2.729 0 0 1 1.062-.213 2.728 2.728 0 0 1 1.061.213 2.722 2.722 0 0 1 .867.585 2.714 2.714 0 0 1 .585.866 2.706 2.706 0 0 1 .214 1.062 2.708 2.708 0 0 1-.214 1.061 2.726 2.726 0 0 1-.585.867 2.714 2.714 0 0 1-.867.585 2.719 2.719 0 0 1-1.061.214zm0-5.448a2.72 2.72 0 0 0-1.06.213 2.731 2.731 0 0 0-.865.583 2.714 2.714 0 0 0-.583.865 2.7 2.7 0 0 0-.214 1.06 2.7 2.7 0 0 0 .214 1.059 2.712 2.712 0 0 0 .583.865 2.733 2.733 0 0 0 .865.584 2.711 2.711 0 0 0 1.06.214 2.71 2.71 0 0 0 1.059-.214 2.731 2.731 0 0 0 .865-.584 2.71 2.71 0 0 0 .583-.865 2.7 2.7 0 0 0 .214-1.059 2.7 2.7 0 0 0-.214-1.06 2.712 2.712 0 0 0-.583-.865 2.728 2.728 0 0 0-.865-.583 2.719 2.719 0 0 0-1.059-.213z" class="prefix__cls-1" data-name="Path 2787" transform="translate(1624.68 7439.378)"/>
                </g>
                <g id="prefix__Group_1102" data-name="Group 1102" transform="translate(0 .677)">
                    <path id="prefix__Path_2788" d="M-1620.546-7436.09a2.725 2.725 0 0 1-2.725 2.724 2.724 2.724 0 0 1-2.724-2.724 2.724 2.724 0 0 1 2.724-2.723 2.724 2.724 0 0 1 2.725 2.723z" class="prefix__cls-2" data-name="Path 2788" transform="translate(1625.998 7438.815)"/>
                    <path id="prefix__Path_2789" d="M-1623.276-7433.368a2.722 2.722 0 0 1-1.061-.214 2.72 2.72 0 0 1-.867-.583 2.735 2.735 0 0 1-.584-.867 2.713 2.713 0 0 1-.215-1.062 2.713 2.713 0 0 1 .215-1.062 2.713 2.713 0 0 1 .584-.867 2.733 2.733 0 0 1 .867-.585 2.73 2.73 0 0 1 1.061-.213 2.728 2.728 0 0 1 1.061.213 2.73 2.73 0 0 1 .867.585 2.712 2.712 0 0 1 .584.867 2.707 2.707 0 0 1 .215 1.062 2.707 2.707 0 0 1-.215 1.062 2.733 2.733 0 0 1-.584.867 2.717 2.717 0 0 1-.867.583 2.719 2.719 0 0 1-1.061.214zm0-5.447a2.7 2.7 0 0 0-1.059.214 2.711 2.711 0 0 0-.865.583 2.713 2.713 0 0 0-.583.865 2.707 2.707 0 0 0-.214 1.06 2.707 2.707 0 0 0 .214 1.06 2.713 2.713 0 0 0 .583.865 2.717 2.717 0 0 0 .865.583 2.713 2.713 0 0 0 1.059.214 2.713 2.713 0 0 0 1.06-.214 2.711 2.711 0 0 0 .865-.583 2.707 2.707 0 0 0 .583-.865 2.709 2.709 0 0 0 .214-1.06 2.709 2.709 0 0 0-.214-1.06 2.707 2.707 0 0 0-.583-.865 2.7 2.7 0 0 0-.865-.583 2.7 2.7 0 0 0-1.06-.214z" class="prefix__cls-1" data-name="Path 2789" transform="translate(1626.003 7438.82)"/>
                </g>
                <g id="prefix__Group_1103" data-name="Group 1103" transform="translate(1.066 1.742)">
                    <path id="prefix__Path_2790" d="M-1619.586-7434.046a1.641 1.641 0 0 1-1.641 1.642 1.641 1.641 0 0 1-1.641-1.642 1.641 1.641 0 0 1 1.641-1.641 1.641 1.641 0 0 1 1.641 1.641z" class="prefix__cls-2" data-name="Path 2790" transform="translate(1622.889 7435.707)"/>
                    <path id="prefix__Path_2791" d="M-1621.265-7432.422a1.663 1.663 0 0 1-1.661-1.661 1.663 1.663 0 0 1 1.661-1.661 1.664 1.664 0 0 1 1.662 1.661 1.663 1.663 0 0 1-1.662 1.661zm0-3.283a1.623 1.623 0 0 0-1.621 1.622 1.623 1.623 0 0 0 1.621 1.621 1.623 1.623 0 0 0 1.622-1.621 1.623 1.623 0 0 0-1.622-1.617z" class="prefix__cls-1" data-name="Path 2791" transform="translate(1622.926 7435.744)"/>
                </g>
                <path id="prefix__Path_2792" d="M-1619.039-7432.884a1.026 1.026 0 0 1-1.026 1.025 1.025 1.025 0 0 1-1.025-1.025 1.025 1.025 0 0 1 1.025-1.025 1.025 1.025 0 0 1 1.026 1.025z" class="prefix__cls-2" data-name="Path 2792" transform="translate(1622.792 7436.287)"/>
                <path id="prefix__Path_2793" d="M-1620.977-7439.882c-.2 3.523-.833 3.77-1.2 3.682a.87.87 0 0 1-.542-.475l-1.46-3.207z" class="prefix__cls-2" data-name="Path 2793" transform="translate(1624.814 7440.19)"/>
                <path id="prefix__Path_2794" d="M-1618.473-7431.711a.343.343 0 0 1-.344.343.343.343 0 0 1-.343-.343.343.343 0 0 1 .343-.344.343.343 0 0 1 .344.344z" class="prefix__cls-2" data-name="Path 2794" transform="translate(1621.53 7435.075)"/>
            </g>
            <path id="prefix__Path_2795" d="M-1652.6-7450.625a.613.613 0 0 1-.607.613h-22.271a2.7 2.7 0 0 1-2.708-2.694 2.7 2.7 0 0 1 2.708-2.693h21.11v.007a.626.626 0 0 1 .592.626.629.629 0 0 1-.628.629.616.616 0 0 1-.086-.007h-20.762a1.455 1.455 0 0 0-1.461 1.451 1.457 1.457 0 0 0 1.461 1.453h21.93a1.12 1.12 0 0 0 .115-.006v.006a.614.614 0 0 1 .607.615z" class="prefix__cls-2" data-name="Path 2795" transform="translate(1685.459 7476.272)"/>
            <g id="prefix__Group_1105" data-name="Group 1105" transform="translate(.417)">
                <path id="prefix__Path_2796" d="M-1691.711-7513.078c-.577.155-1.077.166-1.114.024-.021-.078.107-.188.324-.3a1.636 1.636 0 0 0-1.473-.8l-3.087-.105a.642.642 0 0 1-.131.014.633.633 0 0 1-.634-.634.634.634 0 0 1 .634-.633h3.6a2.555 2.555 0 0 1 2.535 1.8c.183 0 .3.032.322.1.035.142-.398.381-.976.534z" class="prefix__cls-2" data-name="Path 2796" transform="translate(1697.879 7515.558)"/>
                <path id="prefix__Path_2797" d="M-1692.6-7513c-.222 0-.346-.047-.371-.139s.075-.211.3-.333a1.6 1.6 0 0 0-1.4-.722l-3.083-.105a.728.728 0 0 1-.136.014.687.687 0 0 1-.687-.687.687.687 0 0 1 .687-.687h3.6a2.624 2.624 0 0 1 2.573 1.8c.2 0 .311.049.334.138s-.07.205-.284.321a3.4 3.4 0 0 1-.732.277 3.369 3.369 0 0 1-.801.123zm-4.56-1.4h.006l3.088.106a1.683 1.683 0 0 1 1.519.827l.023.047-.047.023c-.26.129-.3.215-.3.235s.061.061.269.061a3.2 3.2 0 0 0 .78-.122 3.253 3.253 0 0 0 .708-.267c.206-.111.238-.184.233-.2s-.062-.059-.271-.059h-.039l-.011-.037a2.487 2.487 0 0 0-2.484-1.759h-3.6a.582.582 0 0 0-.582.581.582.582 0 0 0 .582.581.659.659 0 0 0 .121-.013z" class="prefix__cls-1" data-name="Path 2797" transform="translate(1697.978 7515.658)"/>
            </g>
            <g id="prefix__Group_1106" data-name="Group 1106" transform="translate(5.402 2.064)">
                <path id="prefix__Path_2798" d="M-1657.91-7489.509a.628.628 0 0 1-.086-.007h-19.736v.014h-.3a2.807 2.807 0 0 1-2.708-2.693.17.17 0 0 1 0-.027l-2.755-17.4h1.283l2.434 15.369.017-.014a10.106 10.106 0 0 0 .636 2.509 1.81 1.81 0 0 0 1.317 1v-.015h19.937v.007a.626.626 0 0 1 .592.625.628.628 0 0 1-.631.632z" class="prefix__cls-2" data-name="Path 2798" transform="translate(1683.528 7509.649)"/>
                <path id="prefix__Path_2799" d="M-1677.764-7489.526h-.328a2.817 2.817 0 0 1-2.734-2.716.1.1 0 0 1 0-.023v-.007l-2.76-17.427h1.336v.022l2.426 15.323.015-.013.009.044a10.676 10.676 0 0 0 .627 2.494l.006.008a1.772 1.772 0 0 0 1.268.983v-.008h19.989v.008a.654.654 0 0 1 .592.65.655.655 0 0 1-.654.655.636.636 0 0 1-.089-.007h-19.706zm-5.76-20.121l2.75 17.37v.015a.049.049 0 0 0 0 .013 2.768 2.768 0 0 0 2.682 2.671h.276v-.015h19.762a.849.849 0 0 0 .086.007.6.6 0 0 0 .6-.6.6.6 0 0 0-.568-.6H-1677.844v.021l-.032-.007a1.829 1.829 0 0 1-1.332-1.011 9.206 9.206 0 0 1-.633-2.48l-.018.013-.007-.042-2.43-15.347z" class="prefix__cls-1" data-name="Path 2799" transform="translate(1683.586 7509.699)"/>
            </g>
            <g id="prefix__Group_1107" data-name="Group 1107" transform="translate(0 .275)">
                <path id="prefix__Path_2800" d="M-1692.914-7512.159c-.578.153-1.076.164-1.114.023-.023-.083.125-.2.368-.317a1.59 1.59 0 0 0-1.516-.9l-3.088-.106a.611.611 0 0 1-.131.014.633.633 0 0 1-.634-.633.634.634 0 0 1 .634-.634h3.6a2.552 2.552 0 0 1 2.567 1.908l-.031.012c.182 0 .3.032.321.1.038.139-.399.378-.976.533z" class="prefix__cls-2" data-name="Path 2800" transform="translate(1699.082 7514.765)"/>
                <path id="prefix__Path_2801" d="M-1693.808-7512.083c-.222 0-.346-.047-.371-.139-.029-.107.089-.227.352-.357a1.553 1.553 0 0 0-1.449-.82l-3.083-.105a.686.686 0 0 1-.136.014.687.687 0 0 1-.686-.686.688.688 0 0 1 .686-.687h3.6a2.606 2.606 0 0 1 2.611 1.921c.178.009.275.054.3.136.056.209-.487.458-1.015.6a3.374 3.374 0 0 1-.809.123zm-4.561-1.528l3.094.106a1.639 1.639 0 0 1 1.564.934l.017.045-.044.021c-.3.14-.345.233-.339.255s.061.061.269.061a3.254 3.254 0 0 0 .78-.122c.644-.172.959-.4.94-.47 0-.016-.061-.059-.27-.059l-.01-.054h-.01a2.5 2.5 0 0 0-2.516-1.868h-3.6a.582.582 0 0 0-.581.582.582.582 0 0 0 .581.581.571.571 0 0 0 .12-.013z" class="prefix__cls-1" data-name="Path 2801" transform="translate(1699.181 7514.865)"/>
            </g>
            <g id="prefix__Group_1109" data-name="Group 1109" transform="translate(7.349 5.184)">
                <path id="prefix__Path_2802" d="M-1651.311-7499.934l-2.266 14.273a.468.468 0 0 1-.459.364h-19.718a.468.468 0 0 1-.46-.364l-2.266-14.273a.437.437 0 0 1 .409-.548h24.35a.437.437 0 0 1 .41.548zm-3.288 12.608l.229-2.029h-2.589l-.362 2.575h2.23a.572.572 0 0 0 .491-.545zm-2.334-8.814h-2.728l-.152 2.166h2.576zm-3.649 0h-2.884v2.166h2.732zm-9.981 2.166h2.576l-.152-2.166h-2.728zm3.5 0h2.683v-2.166h-2.834zm2.683 1.446h-2.582l.158 2.255h2.424zm.919 0v2.255h2.474l.157-2.255zm3.551 0l-.157 2.255h2.314l.317-2.255zm2.028 3.173h-2.25l-.179 2.575h2.067zm-3.17 0h-2.409v2.575h2.229zm-3.328 0h-2.36l.18 2.575h2.18zm-3.281 0h-2.249l.362 2.575h2.068zm-.064-.918l-.158-2.255h-2.473l.317 2.255zm-3.558-2.255h-1.917c-.255 0-.431.277-.393.616l.184 1.639h2.443zm-2.264-1.446h2.061l-.3-2.166h-2.538l.238 1.686a.569.569 0 0 0 .535.48zm2.554-3.085h2.794l-.138-1.978h-2.933zm3.714 0h2.9v-1.978h-3.037zm3.817 0h2.948l.138-1.978h-3.086zm3.869 0h2.793l.278-1.978h-2.933zm3.288 3.085h2.07a.569.569 0 0 0 .544-.48l.238-1.686h-2.548zm2.227 2.062c.038-.339-.138-.616-.393-.616h-2.038l-.317 2.255h2.563zm-18.505 5.132h2.108l-.362-2.575h-2.468l.229 2.029a.572.572 0 0 0 .488.546zm-2.078-11.713l.2 1.434h2.539l-.278-1.978h-2.03a.449.449 0 0 0-.436.544zm21.107-.544h-2.04l-.278 1.978h2.549l.2-1.434a.449.449 0 0 0-.435-.544z" class="prefix__cls-2" data-name="Path 2802" transform="translate(1677 7500.555)"/>
                <g id="prefix__Group_1108" data-name="Group 1108">
                    <path id="prefix__Path_2803" d="M-1651.755-7499.971l-2.346 14.774a.482.482 0 0 1-.475.375h-20.41a.482.482 0 0 1-.476-.375l-2.346-14.774a.453.453 0 0 1 .424-.568h25.2a.452.452 0 0 1 .429.568zm-3.4 13.051l.236-2.1h-2.679l-.375 2.664h2.307a.591.591 0 0 0 .508-.564zm-2.415-9.125h-2.825l-.157 2.242h2.666zm-3.778 0h-2.985v2.242h2.828zm-10.332 2.242h2.666l-.157-2.242H-1672zm3.619 0h2.777v-2.242h-2.934zm2.777 1.5h-2.673l.164 2.334h2.509zm.95 0v2.334h2.561l.163-2.334zm3.677 0l-.163 2.334h2.4l.328-2.334zm2.1 3.285h-2.328l-.187 2.664h2.14zm-3.281 0h-2.495v2.664h2.308zm-3.445 0h-2.442l.186 2.664h2.256zm-3.4 0h-2.328l.375 2.664h2.14zm-.066-.951l-.163-2.334h-2.56l.327 2.334zm-3.683-2.334h-1.984c-.265 0-.447.286-.407.637l.191 1.7h2.528zm-2.343-1.5h2.133l-.315-2.242h-2.628l.247 1.746a.588.588 0 0 0 .563.499zm2.643-3.193h2.892l-.143-2.046h-3.036zm3.845 0h3v-2.046h-3.143zm3.951 0h3.052l.143-2.046h-3.195zm4 0h2.891l.288-2.046h-3.036zm3.4 3.193h2.144a.59.59 0 0 0 .563-.5l.246-1.746h-2.638zm2.306 2.134c.039-.352-.142-.637-.406-.637h-2.109l-.328 2.334h2.653zm-19.155 5.312h2.182l-.375-2.664h-2.554l.236 2.1a.592.592 0 0 0 .518.564zm-2.151-12.124l.21 1.484h2.628l-.288-2.046h-2.1a.464.464 0 0 0-.443.563zm21.848-.562h-2.112l-.288 2.046h2.639l.209-1.484a.464.464 0 0 0-.441-.561z" class="prefix__cls-2" data-name="Path 2803" transform="translate(1677.867 7500.592)"/>
                    <path id="prefix__Path_2804" d="M-1654.675-7484.87h-20.41a.537.537 0 0 1-.528-.419l-2.345-14.775a.574.574 0 0 1 .116-.465.467.467 0 0 1 .359-.163h25.2a.463.463 0 0 1 .359.163.575.575 0 0 1 .116.465l-2.346 14.775a.537.537 0 0 1-.521.419zm-22.807-15.717a.365.365 0 0 0-.279.126.471.471 0 0 0-.093.38l2.345 14.775a.43.43 0 0 0 .424.331h20.41a.428.428 0 0 0 .423-.331l2.346-14.775a.471.471 0 0 0-.092-.38.361.361 0 0 0-.279-.126zm21.715 14.183h-2.368l.389-2.77h2.784l-.243 2.16a.645.645 0 0 1-.562.614zm-2.246-.105h2.246a.539.539 0 0 0 .458-.516l.23-2.042h-2.575zm-.975.105h-2.243l.194-2.77h2.438zm-2.13-.105h2.038l.359-2.559h-2.218zm-.96.105h-2.41v-2.77h2.6zm-2.3-.105h2.206l.179-2.559h-2.385zm-.95.105h-2.359l-.193-2.77h2.552zm-2.26-.105h2.154v-2.559h-2.333zm-.945.105h-2.242l-.39-2.77h2.439zm-2.151-.105h2.037l-.179-2.559h-2.218zm-.945.105h-2.243a.645.645 0 0 1-.563-.61l-.243-2.16h2.659zm-2.931-2.664l.23 2.042a.539.539 0 0 0 .458.516h2.122l-.36-2.559zm19.7-.951h-2.761l.343-2.438h2.156a.408.408 0 0 1 .31.144.706.706 0 0 1 .149.552zm-2.64-.105h2.545l.186-1.649a.61.61 0 0 0-.123-.47.309.309 0 0 0-.231-.108h-2.064zm-.975.105h-2.5l.171-2.438h2.67zm-2.385-.105h2.293l.313-2.228h-2.45zm-.96.105h-2.663v-2.438h2.833zm-2.557-.105h2.459l.155-2.228h-2.615zm-.95.105h-2.611l-.171-2.438h2.782zm-2.513-.105h2.407v-2.228H-1668zm-.945.105h-2.5l-.342-2.438h2.67zm-2.407-.105h2.293l-.156-2.228h-2.45zm-.945.105h-2.636l-.2-1.743a.7.7 0 0 1 .148-.552.411.411 0 0 1 .311-.144h2.03zm-2.542-.105h2.42l-.313-2.228h-1.938a.31.31 0 0 0-.233.108.612.612 0 0 0-.122.47zm19.8-3.725h-2.2l.33-2.348h2.745l-.254 1.805a.645.645 0 0 1-.627.542zm-2.083-.105h2.083a.536.536 0 0 0 .511-.452l.237-1.685h-2.531zm-.975.105h-2.768l.165-2.348h2.934zm-2.655-.105h2.563l.3-2.137h-2.714zm-.96.105h-2.931v-2.348h3.1zm-2.825-.105h2.727l.149-2.137h-2.876zm-.95.105h-2.879l-.164-2.348h3.043zm-2.781-.105h2.675v-2.137h-2.824zm-.946.105h-2.769l-.329-2.348h2.934zm-2.677-.105h2.564l-.15-2.137h-2.714zm-.945.105h-2.193a.645.645 0 0 1-.616-.542l-.255-1.805h2.734zm-2.943-2.242l.238 1.685a.536.536 0 0 0 .512.452h2.072l-.3-2.137zm21.729-.952h-2.745l.3-2.152h2.157a.494.494 0 0 1 .378.169.568.568 0 0 1 .123.454zm-2.624-.105h2.532l.2-1.439a.463.463 0 0 0-.1-.369.39.39 0 0 0-.3-.132h-2.066zm-.974.105h-2.994l.151-2.152h3.145zm-2.881-.105h2.789l.273-1.94h-2.926zm-.96.105h-3.154v-2.152h3.3zm-3.049-.105h2.95l.135-1.94h-3.085zm-.95.105h-3.1l-.15-2.152h3.253zm-3-.105h2.9v-1.94h-3.034zm-.946.105h-2.995l-.3-2.152h3.146zm-2.9-.105h2.789l-.136-1.94h-2.926zm-.945.105h-2.735l-.216-1.529a.568.568 0 0 1 .124-.454.494.494 0 0 1 .378-.169h2.147zm-2.643-.105h2.522l-.273-1.94h-2.055a.39.39 0 0 0-.3.132.462.462 0 0 0-.1.369z" class="prefix__cls-1" data-name="Path 2804" transform="translate(1677.967 7500.693)"/>
                </g>
            </g>
            <path id="prefix__Path_2805" d="M-1677.228-7504.032h25a.813.813 0 0 1 .806.819.812.812 0 0 1-.806.818h-25a.812.812 0 0 1-.806-.818.813.813 0 0 1 .806-.819z" class="prefix__cls-2" data-name="Path 2805" transform="translate(1685.359 7508.059)"/>
        </g>
    </g>
</svg>
