<svg xmlns="http://www.w3.org/2000/svg" width="26.567" height="26.566" viewBox="0 0 26.567 26.566">
    <defs>
        <style>
            .prefix__cls-1{fill:#fff}
        </style>
    </defs>
    <g id="prefix__Group_1778" data-name="Group 1778" transform="translate(-664.407 -141.438)">
        <path id="prefix__Path_2963" d="M4720.367-5111.59l-.883 4.307a.371.371 0 0 0 .434.434l4.308-.883.188-.1 9.264-9.264a.186.186 0 0 0 0-.263l-3.682-3.682a.186.186 0 0 0-.263 0l-9.264 9.264c-.034.063-.069.123-.102.187z" class="prefix__cls-1" data-name="Path 2963" transform="translate(-4047.1 5266.876)"/>
        <path id="prefix__Path_2964" d="M4719.855-5112.674h-1.594a.53.53 0 0 0-.531.531v7.439h-18.6v-18.6h6.11a.532.532 0 0 0 .531-.532v-1.594a.531.531 0 0 0-.531-.531h-7.439a1.328 1.328 0 0 0-1.328 1.329v21.252a1.328 1.328 0 0 0 1.328 1.328h21.253a1.328 1.328 0 0 0 1.328-1.328v-8.768a.531.531 0 0 0-.527-.526z" class="prefix__cls-1" data-name="Path 2964" transform="translate(-4032.071 5270.052)"/>
        <path id="prefix__Path_2965" d="M4761.108-5130.722l-2.63-2.63a.929.929 0 0 0-1.314 0l-1.942 1.942a.266.266 0 0 0 0 .375l3.569 3.569a.266.266 0 0 0 .376 0l1.941-1.941a.929.929 0 0 0 0-1.315z" class="prefix__cls-1" data-name="Path 2965" transform="translate(-4070.408 5275.063)"/>
    </g>
</svg>
