<svg xmlns="http://www.w3.org/2000/svg" id="prefix__Group_1737" width="17.986" height="19.867" data-name="Group 1737" viewBox="0 0 17.986 19.867">
    <defs>
        <style>
            .prefix__cls-1{fill:#666}
        </style>
    </defs>
    <path id="prefix__Path_2876" d="M10075.843-4418.54a1.112 1.112 0 0 0-.537.564l-.085.2v5.979h-1.228a13.107 13.107 0 0 0-1.343.039.718.718 0 0 0-.443.405l-.088.195v4.1c0 4.448-.008 4.254.186 4.483.165.2.3.241.784.241h.44v-4.013h15.306v4.013h.371c.4 0 .554-.05.712-.241.194-.23.188-.035.188-4.483v-4.1l-.088-.195a.728.728 0 0 0-.445-.405 11.915 11.915 0 0 0-1.271-.039h-1.159v-1.09h-1.656v1.87h-8.609l.01-2.72a21.7 21.7 0 0 1 .061-2.784c.042-.063.268-.067 2.6-.067h2.554v-2.025h-3.041c-2.919-.001-3.054.003-3.219.073zm-1.288 8.41c.1.108.1.128.1.491 0 .592-.041.639-.574.643-.355 0-.385 0-.465-.1s-.088-.121-.088-.506c0-.612.023-.635.573-.639.342-.002.352.002.454.111z" class="prefix__cls-1" data-name="Path 2876" transform="translate(-10072.119 4418.618)"/>
    <path id="prefix__Path_2877" d="M10102.574-4416.541c0 1.391.015 2.064.039 2.166a1.141 1.141 0 0 0 .509.643l.207.117 1.845.013c1.016.008 1.846 0 1.846-.02s-1-1.139-2.224-2.486l-2.222-2.455z" class="prefix__cls-1" data-name="Path 2877" transform="translate(-10092.028 4418.582)"/>
    <path id="prefix__Path_2878" d="M10077.828-4378.274a16.73 16.73 0 0 0 .079 3.244 1.167 1.167 0 0 0 .543.546c.184.078.281.078 6.458.078 7 0 6.443.023 6.757-.28a1.378 1.378 0 0 0 .24-.32l.076-.159.011-3.108.008-3.1h-1.693v2.5a25.3 25.3 0 0 1-.041 2.552c-.062.066-10.649.066-10.709 0a24.9 24.9 0 0 1-.041-2.552v-2.5h-1.693z" class="prefix__cls-1" data-name="Path 2878" transform="translate(-10075.848 4394.273)"/>
    <path id="prefix__Path_2879" d="M10086.055-4379.928a.8.8 0 0 0 .045 1.06 25.211 25.211 0 0 0 3.953.077c2.116.009 3.916 0 4-.011.306-.051.468-.358.408-.791a.531.531 0 0 0-.142-.308l-.115-.128h-8.041z" class="prefix__cls-1" data-name="Path 2879" transform="translate(-10081.112 4393.39)"/>
    <path id="prefix__Path_2880" d="M10086.2-4373.786c-.361.1-.464.833-.156 1.118l.109.1h8.025l.11-.1a.829.829 0 0 0-.028-1.056c-.085-.066-.331-.069-4.041-.073-2.17-.003-3.979-.003-4.019.011z" class="prefix__cls-1" data-name="Path 2880" transform="translate(-10081.105 4389.317)"/>
</svg>
