<svg xmlns="http://www.w3.org/2000/svg" width="12.602" height="16.575" viewBox="0 0 12.602 16.575">
    <path id="prefix__Path_2385" fill="#1e85b3" fill-rule="evenodd" d="M-2985.917-9921.739a.2.2 0 0 1-.2-.2.2.2 0 0 1 .2-.2h5.958a.2.2 0 0 1 .2.2.2.2 0 0 1-.2.2zm-1.1-10.58a1.2 1.2 0 0 0-.849.353 1.2 1.2 0 0 0-.352.849v14.172a1.2 1.2 0 0 0 .351.848 1.2 1.2 0 0 0 .849.354h10.2a1.2 1.2 0 0 0 .848-.353 1.2 1.2 0 0 0 .353-.847v-10.933a.2.2 0 0 0-.069-.15l-4.218-4.223a.2.2 0 0 0-.152-.07h-6.962zm6.762.4h-6.762a.8.8 0 0 0-.565.233.8.8 0 0 0-.235.567v14.172a.8.8 0 0 0 .237.566.8.8 0 0 0 .565.235h10.2a.8.8 0 0 0 .567-.234.8.8 0 0 0 .235-.564v-10.732h-3.04a1.2 1.2 0 0 1-.847-.351 1.2 1.2 0 0 1-.35-.848v-3.042zm3.957 3.844h-2.756a.8.8 0 0 1-.565-.235.8.8 0 0 1-.234-.566v-2.759l3.557 3.561zm-2.377 7.041a1.189 1.189 0 0 1 .848.35 1.194 1.194 0 0 1 .35.846 1.2 1.2 0 0 1-.351.849 1.2 1.2 0 0 1-.848.35 1.193 1.193 0 0 1-.847-.351 1.193 1.193 0 0 1-.351-.849 1.189 1.189 0 0 1 .34-.835l.011-.011a1.184 1.184 0 0 1 .847-.351zm-1.13.068a1.591 1.591 0 0 1 1.13-.471 1.6 1.6 0 0 1 1.129.469 1.6 1.6 0 0 1 .469 1.128 1.6 1.6 0 0 1-.469 1.132 1.6 1.6 0 0 1-1.13.468 1.6 1.6 0 0 1-1.13-.468 1.589 1.589 0 0 1-.468-1.132 1.6 1.6 0 0 1 .457-1.118l.011-.01zm-6.112-5.062a.2.2 0 0 1-.2-.2.2.2 0 0 1 .2-.2h6.994a.2.2 0 0 1 .2.2.2.2 0 0 1-.2.2zm0 2.079a.2.2 0 0 1-.2-.2.2.2 0 0 1 .2-.2h7.564a.2.2 0 0 1 .2.2.2.2 0 0 1-.2.2z" data-name="Path 2385" transform="translate(2988.218 9932.319)"/>
</svg>
