<svg xmlns="http://www.w3.org/2000/svg" id="prefix__pin2" width="19.926" height="31.853" viewBox="0 0 19.926 31.853">
    <defs>
        <style>
            .prefix__cls-1{fill:#00aeef}
        </style>
    </defs>
    <ellipse id="prefix__Ellipse_491" cx="8.983" cy="3.992" class="prefix__cls-1" data-name="Ellipse 491" rx="8.983" ry="3.992" transform="translate(.961 23.868)"/>
    <path id="prefix__Path_3892" fill="#4c6c7d" d="M-3396.144-11313.348a1 1 0 0 1-.768-.36c-.248-.3-6.1-7.384-8.333-12.649a1 1 0 0 1 .529-1.309 1 1 0 0 1 1.309.529c1.657 3.906 5.6 9.094 7.267 11.2 2.783-3.5 7.982-10.707 7.982-13.912a7.744 7.744 0 0 0-7.985-7.456 7.751 7.751 0 0 0-7.953 6.778 1 1 0 0 1-1.09.9 1 1 0 0 1-.9-1.09 9.737 9.737 0 0 1 9.94-8.582 9.738 9.738 0 0 1 9.981 9.452c0 4.889-8.27 15-9.213 16.138a1 1 0 0 1-.766.361z" data-name="Path 3892" transform="translate(3406.089 11339.298)"/>
    <path id="prefix__Path_3893" d="M-3384.929-11314.291a4 4 0 0 1-3.992-3.992 4 4 0 0 1 3.992-3.992 4 4 0 0 1 3.993 3.992 4 4 0 0 1-3.993 3.992zm0-5.988a2 2 0 0 0-2 2 2 2 0 0 0 2 2 2 2 0 0 0 2-2 2 2 0 0 0-2-2z" class="prefix__cls-1" data-name="Path 3893" transform="translate(3394.873 11328.177)"/>
</svg>
