<svg xmlns="http://www.w3.org/2000/svg" width="56.348" height="56.348" viewBox="0 0 56.348 56.348">
    <path id="prefix__Path_3008" fill="#383838" d="M-49.412-4920.272a28.175 28.175 0 0 0-28.174 28.172 28.176 28.176 0 0 0 28.174 28.174 28.176 28.176 0 0 0 28.174-28.174 28.175 28.175 0 0 0-28.174-28.172zm12.753 30.4l-17.456 11.638c-1.84 1.225-3.346.419-3.346-1.794v-24.149c0-2.214 1.512-3.018 3.346-1.789l17.451 11.638a2.487 2.487 0 0 1 .005 4.461z" data-name="Path 3008" transform="translate(77.586 4920.272)"/>
</svg>
