<svg id="Layer_1" data-name="Layer 1" xmlns="http://www.w3.org/2000/svg" viewBox="0 0 557.42 171.5"><defs><style>.cls-1{font-size:51.35px;font-family:GalactiCondensedRegular-FFC, Galacti Condensed_FFC;}.cls-1,.cls-2,.cls-5{fill:#1e85b3;}.cls-2,.cls-3{fill-rule:evenodd;}.cls-4{font-size:104.68px;font-family:Impact, Impact;}</style></defs><title>Untitled-1</title><text class="cls-1" transform="translate(112.18 161.89) scale(1.05 1)">םיקסע ילעב</text><path class="cls-2" d="M60.49,44.13A28.86,28.86,0,0,0,32.33,79.19h1.38v3.87H35v1.44a4.83,4.83,0,0,0,1,0l0-.26h.41V82.07h.29c0-.32,0-.29.17-.43,1.27-.86.75-.87,1.77-.24.43.26.48.25.5.67l.28.06v2.1h.43v3.08l.4,0V82.06c.22,0,.18.05.24-.08s0-.17-.24-.18v-.68c1.17,0,.95.09.95-1.16h.27l0-.37h1v.36l.16,0c.09,0,.08,0,.12.05v1.09h.43l0-13.41h.4V62.53h.7v-.91h1a26.73,26.73,0,0,1,.16-3.27l.1,3.28h1.24l0,.9h.68V65.2h.5v2.5h.4c.09.38,0,10.84,0,11.75,0,1.25-.06,2.67,0,3.91h.29c0-1-.12-1,.23-1V81l.27,0V79.59h.37l0-.48h.57V68.29c1-.55,2.92-2,4-2.6,0-2.26,0-4.69.21-6.93a28.77,28.77,0,0,1,.14,3.33c0,1,0,2.35.08,3.3.28-.12.74-.5,1.06-.66v9.71a2.71,2.71,0,0,0,.44-.24c.14-.11.06.05.12-.21.38-1.62.6-1.47,1.93-2.28.46-.28.58-.19.58-.7,0-1.25,0-2.52.18-3.74a37.2,37.2,0,0,1,.22,3.84l1.69-1,.42,1,.45-.25a23,23,0,0,1,1.76,5.49,24.84,24.84,0,0,1,.11,6.75c.76,0,.79-.11.8.19h.74v.37c.31,0,.21.12.21.42-.22,0-.17,0-.22.09s.1.18.1.18.07-.14.12.18c0,0,0,.21,0,.26s-.25-.05-.22.16.05.12.22.12v.42c-.15,0-.24,0-.22.16s.11.11.22.2v.28l0,0-.07,0c-.05,0-.14,0-.1.17s0,.06.21.16v.37l-.22,0c0,.31-.06.28.22.28,0,.6,0,.35-.15.45s0-.06-.06.09,0,.16.21.17c0,.31.11.42-.21.42,0,.32-.07.27.22.28v.36h.33V63.2h1.68l-.59-2.82a2.49,2.49,0,0,0,.42-.27c.42-.33,1.2,0,1.77-.18,0-2.06.15-4.05.26-6.09a58.8,58.8,0,0,1,.28,6.1,12.25,12.25,0,0,0,1.3,0c.3,0,.61.31.83.45l-.59,2.8,1.66,0,0,18,.33,0a21.69,21.69,0,0,0,0-2.63h.36c0-.33,0-.4.22-.55a3,3,0,0,0,.47-.34c.13-.27-.51-7.14-.55-7.6.25.06.76.32,1.08.43a7.12,7.12,0,0,0,1.15.34l-.08-.51a11.15,11.15,0,0,0,3.08,0l-.08.49a17.11,17.11,0,0,0,2.2-.74c-.14,2.11-.38,4.21-.5,6.35s-.22,4.45-.22,6.7h1.64c0,.2,0,.29-.1.4l.1.12a1.42,1.42,0,0,1,0,.53,20.85,20.85,0,0,0,0,2.09l1.1,0,0-1.41h2.09v3c.16-.25.31-.51.45-.77,0-.06,0-.1.07-.13l.1-.19s0,0-.09,0-.08.11-.1-.16,0-.08.23-.09c0-.37,0-.08-.14-.17s-.08.12-.1-.16,0-.08.24-.09c0-.37,0-.07-.14-.17s-.08.12-.1-.16c.06-.13,0-.08.24-.08,0-.33,0-.08-.24-.2,0-.21,0-.22.24-.22v-.16l-.24,0c0-.21,0-.22.24-.22,0-.38-.25.06-.24-.4h.24v-.17c-.26,0-.25,0-.24-.22.29-.12.16-.16.38-.25a9.05,9.05,0,0,1,1.35-.3A28.86,28.86,0,0,0,60.49,44.13Z" transform="translate(-17.43 -14.5)"/><path class="cls-3" d="M94.52,76.53a34.15,34.15,0,1,1-37-36.88V30.71a43.06,43.06,0,0,0-40.12,43h0c-.18,26.22,22.63,50.12,43.06,66.86,19.69-16.14,41.58-38.91,43-64Z" transform="translate(-17.43 -14.5)"/><path class="cls-2" d="M63.28,14.5v9a50.3,50.3,0,0,1,47.43,47.36h8.95A59.24,59.24,0,0,0,63.28,14.5Z" transform="translate(-17.43 -14.5)"/><path class="cls-2" d="M63.28,30.7v8.94A34.15,34.15,0,0,1,94.52,70.81h8.93A43.06,43.06,0,0,0,63.28,30.7Z" transform="translate(-17.43 -14.5)"/><text class="cls-4" transform="translate(105.54 116.05)">Point<tspan class="cls-5" x="221.37" y="0">Store</tspan></text></svg>