<svg xmlns="http://www.w3.org/2000/svg" width="15.9" height="9.719" viewBox="0 0 15.9 9.719">
    <path id="prefix__Path_2386" fill="#1e85b3" fill-rule="evenodd" d="M-2502.833-9921.378h-5.2v.919a3.02 3.02 0 0 1 .944 1.064 3.3 3.3 0 0 1 .39 1.566 3.315 3.315 0 0 1-.39 1.569 3.032 3.032 0 0 1-.944 1.063v.918h5.2v-7.1zm-6.58-.994v9.087h1.008v-9.087zm-.315 9.087v-9.087h-1.008v9.087zm-7.242-9.4h14.8a.548.548 0 0 1 .389.162.547.547 0 0 1 .161.389v8.616a.548.548 0 0 1-.161.389l-.01.008a.546.546 0 0 1-.379.155h-14.8a.555.555 0 0 1-.388-.163.552.552 0 0 1-.162-.389v-8.616a.542.542 0 0 1 .162-.387.549.549 0 0 1 .389-.162zm14.8.314a.235.235 0 0 1 .167.07.235.235 0 0 1 .069.166v8.616a.231.231 0 0 1-.069.165l-.006.007a.235.235 0 0 1-.16.063h-5.92v-.679h5.415a.156.156 0 0 0 .157-.156v-7.415a.157.157 0 0 0-.157-.157h-5.415v-.68zm-8.879 0h-5.92a.237.237 0 0 0-.167.07.23.23 0 0 0-.069.166v8.616a.234.234 0 0 0 .069.166.234.234 0 0 0 .167.068h5.92v-.679h-5.416a.156.156 0 0 1-.157-.156v-7.415a.157.157 0 0 1 .157-.157h5.416v-.68zm6.69 3.951a.6.6 0 0 1 .422.175.591.591 0 0 1 .174.42.593.593 0 0 1-.175.422.6.6 0 0 1-.422.174.6.6 0 0 1-.421-.174l-.009-.011a.594.594 0 0 1-.166-.412.593.593 0 0 1 .175-.42.6.6 0 0 1 .421-.175zm.2.4a.281.281 0 0 1 .083.2.278.278 0 0 1-.082.2.277.277 0 0 1-.2.083.275.275 0 0 1-.2-.083l-.007-.007a.273.273 0 0 1-.075-.192.28.28 0 0 1 .083-.2.277.277 0 0 1 .2-.081.28.28 0 0 1 .2.081zm-10.621-.4a.6.6 0 0 0-.411.165l-.01.01a.592.592 0 0 0-.175.42.6.6 0 0 0 .174.421.6.6 0 0 0 .421.174.6.6 0 0 0 .421-.174.6.6 0 0 0 .175-.423.59.59 0 0 0-.175-.42.6.6 0 0 0-.421-.175zm.2.4a.282.282 0 0 0-.2-.08.28.28 0 0 0-.193.074l-.006.007a.281.281 0 0 0-.082.2.278.278 0 0 0 .082.2.279.279 0 0 0 .2.082.277.277 0 0 0 .2-.083.276.276 0 0 0 .082-.2.28.28 0 0 0-.082-.2zm-.621.62v-.222a.158.158 0 0 0 0 .222zm-.508 2.381h1.86a.156.156 0 0 0 .157-.156.157.157 0 0 0-.157-.156h-1.86a.157.157 0 0 0-.157.156.156.156 0 0 0 .157.156zm10.422 0a.156.156 0 0 1-.158-.156.157.157 0 0 1 .158-.156h1.86a.157.157 0 0 1 .157.156.156.156 0 0 1-.157.156zm0-5.294a.157.157 0 0 1-.158-.156.156.156 0 0 1 .158-.156h1.86a.156.156 0 0 1 .157.156.157.157 0 0 1-.157.156zm-10.422 0h1.86a.157.157 0 0 0 .157-.156.156.156 0 0 0-.157-.156h-1.86a.156.156 0 0 0-.157.156.157.157 0 0 0 .157.156zm7.675.252a2.752 2.752 0 0 1 .668.82 2.99 2.99 0 0 1 .352 1.418 2.988 2.988 0 0 1-.352 1.419 2.755 2.755 0 0 1-.668.821v-4.479zm-3.067 0a2.753 2.753 0 0 0-.668.82 2.987 2.987 0 0 0-.351 1.418 2.988 2.988 0 0 0 .351 1.419 2.757 2.757 0 0 0 .668.821v-4.479zm-.945.672a3.024 3.024 0 0 1 .945-1.064v-.919h-5.2v7.1h5.2v-.918a3.034 3.034 0 0 1-.945-1.062 3.318 3.318 0 0 1-.39-1.569 3.3 3.3 0 0 1 .387-1.574z" data-name="Path 2386" transform="translate(2517.521 9922.687)"/>
</svg>
