<svg xmlns="http://www.w3.org/2000/svg" width="10.25" height="11.322" viewBox="0 0 10.25 11.322">
    <defs>
        <style>
            .prefix__cls-1{fill:#666}
        </style>
    </defs>
    <g id="prefix__Group_1741" data-name="Group 1741">
        <path id="prefix__Path_2852" d="M10086.406-4643.088a.633.633 0 0 0-.307.322l-.048.111v3.409h-.7a7.346 7.346 0 0 0-.767.021.413.413 0 0 0-.253.23l-.049.112v2.337c0 2.536-.006 2.425.1 2.555.095.114.174.138.447.138h.251v-2.287h8.725v2.287h.211c.229 0 .315-.029.405-.138.111-.13.106-.019.106-2.555v-2.337l-.05-.112a.41.41 0 0 0-.254-.23 6.658 6.658 0 0 0-.726-.021h-.659v-.622h-.943v1.066H10087l.006-1.55a12.632 12.632 0 0 1 .034-1.587 6.137 6.137 0 0 1 1.48-.038h1.456v-1.155h-1.732a8.768 8.768 0 0 0-1.838.044zm-.733 4.793c.055.063.057.073.057.279 0 .338-.024.365-.326.367-.2 0-.221 0-.267-.055s-.05-.069-.05-.29c0-.348.014-.362.328-.364.193-.002.199.001.258.063z" class="prefix__cls-1" data-name="Path 2852" transform="translate(-10084.284 4643.133)"/>
        <path id="prefix__Path_2853" d="M10101.64-4641.948c0 .792.008 1.176.021 1.234a.654.654 0 0 0 .289.366l.119.067 1.052.006c.578 0 1.051 0 1.051-.011s-.569-.648-1.267-1.417l-1.266-1.4z" class="prefix__cls-1" data-name="Path 2853" transform="translate(-10095.631 4643.112)"/>
        <path id="prefix__Path_2854" d="M10087.535-4620.139a9.674 9.674 0 0 0 .045 1.849.679.679 0 0 0 .31.311 27.54 27.54 0 0 0 3.681.044c3.992 0 3.673.014 3.852-.16a.756.756 0 0 0 .135-.182l.045-.092.008-1.771v-1.77h-.965v1.427a13.592 13.592 0 0 1-.024 1.454c-.033.038-6.068.038-6.1 0a13.592 13.592 0 0 1-.024-1.454v-1.427h-.965z" class="prefix__cls-1" data-name="Path 2854" transform="translate(-10086.406 4629.257)"/>
        <path id="prefix__Path_2855" d="M10092.224-4621.082a.457.457 0 0 0 .024.6 14.319 14.319 0 0 0 2.254.045c1.206 0 2.232 0 2.28-.008.174-.029.268-.2.232-.45a.3.3 0 0 0-.08-.175l-.066-.074h-4.584z" class="prefix__cls-1" data-name="Path 2855" transform="translate(-10089.408 4628.754)"/>
        <path id="prefix__Path_2856" d="M10092.309-4617.582c-.205.061-.264.475-.089.638l.062.057h4.576l.062-.057a.475.475 0 0 0-.016-.6 13.322 13.322 0 0 0-2.3-.042c-1.242-.004-2.274-.002-2.295.004z" class="prefix__cls-1" data-name="Path 2856" transform="translate(-10089.405 4626.433)"/>
    </g>
</svg>
