<svg xmlns="http://www.w3.org/2000/svg" width="17.927" height="10.958" viewBox="0 0 17.927 10.958">
    <path id="prefix__Path_2847" fill="#666" fill-rule="evenodd" d="M9084.594-4852.265h-5.868v1.035a3.419 3.419 0 0 1 1.066 1.2 3.722 3.722 0 0 1 .439 1.768 3.717 3.717 0 0 1-.439 1.767 3.4 3.4 0 0 1-1.065 1.2v1.036h5.869v-8zm-15.939-1.472h16.686a.62.62 0 0 1 .438.182.617.617 0 0 1 .184.438v9.713a.626.626 0 0 1-.181.44l-.014.009a.615.615 0 0 1-.427.172h-16.683a.613.613 0 0 1-.437-.182.615.615 0 0 1-.183-.437v-9.713a.611.611 0 0 1 .182-.437.616.616 0 0 1 .438-.182zm16.686.351a.259.259 0 0 1 .187.079.262.262 0 0 1 .08.187v9.713a.269.269 0 0 1-.08.189v.007a.268.268 0 0 1-.183.071h-6.672v-.766h6.1a.177.177 0 0 0 .176-.178v-8.359a.177.177 0 0 0-.177-.176h-6.105v-.766zm-10.011 0h-6.675a.265.265 0 0 0-.187.079.279.279 0 0 0-.077.189v9.713a.271.271 0 0 0 .078.188.27.27 0 0 0 .19.079h6.673v-.766h-6.106a.176.176 0 0 1-.176-.178v-8.36a.177.177 0 0 1 .177-.176h6.106v-.766zm1.846 0v10.246h1.136v-10.245zm-.354 10.246v-10.246h-1.136V-4843.14zm6.052-5.794a.663.663 0 0 1 .475.2.662.662 0 0 1 .2.475.668.668 0 0 1-.2.475.666.666 0 0 1-.475.2.675.675 0 0 1-.476-.2l-.01-.013a.669.669 0 0 1-.186-.462.674.674 0 0 1 .2-.475.674.674 0 0 1 .476-.2zm.225.448a.317.317 0 0 1 .092.224.309.309 0 0 1-.091.224.32.32 0 0 1-.225.093.321.321 0 0 1-.225-.092l-.008-.008a.322.322 0 0 1-.085-.217.32.32 0 0 1 .093-.224.316.316 0 0 1 .225-.094.32.32 0 0 1 .225.093zm-11.974-.446a.664.664 0 0 0-.464.188l-.012.011a.668.668 0 0 0-.2.474.681.681 0 0 0 .2.474.668.668 0 0 0 .476.2.67.67 0 0 0 .475-.2.669.669 0 0 0 .2-.475.661.661 0 0 0-.2-.474.66.66 0 0 0-.473-.2zm.223.447a.311.311 0 0 0-.223-.092.317.317 0 0 0-.218.085l-.006.009a.3.3 0 0 0-.094.223.316.316 0 0 0 .092.225.314.314 0 0 0 .224.092.318.318 0 0 0 .225-.093.319.319 0 0 0 .092-.225.307.307 0 0 0-.094-.223zm-.7.7v-.25a.179.179 0 0 0 0 .25zm-.571 2.686h2.1a.176.176 0 0 0 .179-.177.177.177 0 0 0-.179-.178h-2.1a.178.178 0 0 0-.178.177.177.177 0 0 0 .178.177zm11.751 0a.176.176 0 0 1-.179-.176.177.177 0 0 1 .179-.178h2.1a.178.178 0 0 1 .178.178.177.177 0 0 1-.178.176zm0-5.968a.178.178 0 0 1-.177-.178.178.178 0 0 1 .177-.178h2.1a.179.179 0 0 1 .178.179.178.178 0 0 1-.178.177zm-11.748 0h2.1a.176.176 0 0 0 .178-.177.177.177 0 0 0-.179-.178h-2.1a.179.179 0 0 0-.178.179.177.177 0 0 0 .178.177zm8.65.281a3.113 3.113 0 0 1 .755.924 3.384 3.384 0 0 1 .4 1.6 3.361 3.361 0 0 1-.4 1.6 3.057 3.057 0 0 1-.754.924v-5.048zm-3.457 0a3.153 3.153 0 0 0-.753.924 3.382 3.382 0 0 0-.4 1.6 3.409 3.409 0 0 0 .4 1.6 3.114 3.114 0 0 0 .755.924v-5.048zm-1.064.757a3.44 3.44 0 0 1 1.064-1.2v-1.034h-5.873v8.005h5.866v-1.036a3.409 3.409 0 0 1-1.065-1.2 3.718 3.718 0 0 1-.439-1.768 3.725 3.725 0 0 1 .438-1.766z" data-name="Path 2847" transform="translate(-9068.035 4853.74)"/>
</svg>
