<svg xmlns="http://www.w3.org/2000/svg" width="17.896" height="21.309" viewBox="0 0 17.896 21.309">
    <path id="prefix__Path_2848" fill="#1e85b3" fill-rule="evenodd" d="M8158.344-4859.976h3.053v-3.307h-3.053v3.307zm10.747-12.4a1 1 0 0 1 .708.293 1 1 0 0 1 .293.708v16.1a1 1 0 0 1-.3.709 1 1 0 0 1-.708.294h-14.882a1 1 0 0 1-.711-.294 1 1 0 0 1-.293-.709v-16.1a1 1 0 0 1 .294-.708 1 1 0 0 1 .711-.3h1.458v1.946a.251.251 0 0 0 .25.252.251.251 0 0 0 .252-.252v-1.946h10.958v1.946a.252.252 0 0 0 .252.252.251.251 0 0 0 .251-.252v-1.946zm-14.882-.5h1.458v-1.947a.251.251 0 0 1 .25-.251.252.252 0 0 1 .252.251v1.947h10.958v-1.947a.252.252 0 0 1 .252-.251.252.252 0 0 1 .251.251v1.947h1.46a1.507 1.507 0 0 1 1.064.443 1.5 1.5 0 0 1 .442 1.063v16.1a1.5 1.5 0 0 1-.442 1.064 1.5 1.5 0 0 1-1.064.442h-14.882a1.5 1.5 0 0 1-1.062-.441 1.5 1.5 0 0 1-.441-1.062v-16.1a1.5 1.5 0 0 1 .441-1.064 1.509 1.509 0 0 1 1.066-.443zm11 5.289h3.556a.251.251 0 0 1 .251.25v11.429a.251.251 0 0 1-.251.251h-14.226a.252.252 0 0 1-.251-.251v-11.429a.252.252 0 0 1 .251-.25h10.67zm3.3.5h-3.055v3.307h3.055v-3.307zm-3.557 0h-3.052v3.307h3.053v-3.307zm3.557 7.116v-3.307h-3.055v3.307zm-3.557 0v-3.307h-3.052v3.307zm3.557.5h-3.055v3.307h3.055v-3.307zm-3.557 0h-3.052v3.307h3.053v-3.307zm-7.112-7.619h-3.053v3.307h3.053v-3.307zm3.557 0h-3.053v3.307h3.053v-3.307zm-3.557 3.81h-3.053v3.307h3.053v-3.307zm0 7.117v-3.307h-3.053v3.307zm3.557-3.307h-3.053v3.307h3.053z" data-name="Path 2848" transform="translate(-8152.701 4875.081)"/>
</svg>
