<svg xmlns="http://www.w3.org/2000/svg" id="prefix__screen" width="25.726" height="24.118" viewBox="0 0 25.726 24.118">
    <defs>
        <style>
            .prefix__cls-1{fill:#4c6c7d}
        </style>
    </defs>
    <path id="prefix__Path_3880" d="M-4079.735-11297.553h-20.9a2.414 2.414 0 0 1-2.412-2.412v-15.274a2.414 2.414 0 0 1 2.412-2.412h11.83a.8.8 0 0 1 .8.8.8.8 0 0 1-.8.8h-11.83a.8.8 0 0 0-.8.8v15.274a.8.8 0 0 0 .8.8h20.9a.8.8 0 0 0 .8-.8v-15.274a.8.8 0 0 0-.8-.8h-5.857a.8.8 0 0 1-.8-.8.8.8 0 0 1 .8-.8h5.857a2.414 2.414 0 0 1 2.412 2.412v15.274a2.414 2.414 0 0 1-2.412 2.412z" class="prefix__cls-1" data-name="Path 3880" transform="translate(4103.049 11317.651)"/>
    <path id="prefix__Path_3881" d="M-4069.6-11258.691h-4.824a.8.8 0 0 1-.8-.8v-4.021a.8.8 0 0 1 .8-.8.8.8 0 0 1 .8.8v3.217h3.216v-3.217a.8.8 0 0 1 .8-.8.8.8 0 0 1 .8.8v4.021a.8.8 0 0 1-.792.8z" class="prefix__cls-1" data-name="Path 3881" transform="translate(4084.87 11282.81)"/>
    <path id="prefix__Path_3882" d="M-4072.44-11251.117h-11.26a.8.8 0 0 1-.8-.8.8.8 0 0 1 .8-.8h11.255a.8.8 0 0 1 .8.8.8.8 0 0 1-.795.8z" class="prefix__cls-1" data-name="Path 3882" transform="translate(4090.93 11275.235)"/>
    <rect id="prefix__Rectangle_1346" width="19.294" height="12.059" fill="#00aeef" data-name="Rectangle 1346" rx="6.029" transform="translate(3.216 3.216)"/>
    <path id="prefix__Path_3883" d="M-4066.659-11270.471a.8.8 0 0 1-.8.8.8.8 0 0 1-.8-.8.8.8 0 0 1 .8-.8.8.8 0 0 1 .8.8z" class="prefix__cls-1" data-name="Path 3883" transform="translate(4080.326 11287.354)"/>
</svg>
