<svg xmlns="http://www.w3.org/2000/svg" width="24.394" height="24.393" viewBox="0 0 24.394 24.393">
    <defs>
        <style>
            .prefix__cls-1{fill:#00aeef}.prefix__cls-2{fill:#4c6c7d}
        </style>
    </defs>
    <g id="prefix__support">
        <path id="prefix__Path_3874" d="M-4080.593-11456.514a1.532 1.532 0 0 0 1.6.137 6.778 6.778 0 0 1 2.993-.694 6.772 6.772 0 0 1 2.991.694 1.533 1.533 0 0 0 1.6-.136l.749-.559c-2.287-2.287-1.035-2.287-5.336-2.287s-3.049 0-5.336 2.287z" class="prefix__cls-1" data-name="Path 3874" transform="translate(4088.2 11460.12)"/>
        <path id="prefix__Path_3875" d="M-4075.475-11450.121a.762.762 0 0 1-.762-.763v-.762a8.343 8.343 0 0 0-.636-3.21.762.762 0 0 1 .412-1 .764.764 0 0 1 1 .412 9.847 9.847 0 0 1 .753 3.794v.762a.762.762 0 0 1-.767.767zm-18.295 0a.762.762 0 0 1-.763-.763v-.762a9.922 9.922 0 0 1 9.91-9.91 9.922 9.922 0 0 1 7.412 3.331.763.763 0 0 1-.064 1.076.763.763 0 0 1-1.077-.063 8.394 8.394 0 0 0-6.271-2.819 8.4 8.4 0 0 0-8.385 8.386v.762a.762.762 0 0 1-.762.762z" class="prefix__cls-2" data-name="Path 3875" transform="translate(4096.819 11461.556)"/>
        <path id="prefix__Path_3876" d="M-4060.789-11407a.761.761 0 0 1-.763-.762.762.762 0 0 1 .763-.763c2.492 0 6.1-1.9 6.1-5.336v-.762a.762.762 0 0 1 .762-.763.762.762 0 0 1 .762.763v.762c-.001 4.046-4.018 6.861-7.624 6.861z" class="prefix__cls-2" data-name="Path 3876" transform="translate(4075.273 11431.391)"/>
        <path id="prefix__Path_3877" d="M-4096.554-11435.172h-1.879a2.7 2.7 0 0 0-2.7 2.7v3a2.7 2.7 0 0 0 2.7 2.694h1.879a.761.761 0 0 0 .762-.762v-6.86a.762.762 0 0 0-.762-.772z" class="prefix__cls-1" data-name="Path 3877" transform="translate(4101.128 11444.319)"/>
        <path id="prefix__Path_3878" d="M-4043.519-11435.172h-1.878a.762.762 0 0 0-.763.763v6.86a.761.761 0 0 0 .763.762h1.878a2.7 2.7 0 0 0 2.7-2.694v-3a2.7 2.7 0 0 0-2.7-2.691z" class="prefix__cls-1" data-name="Path 3878" transform="translate(4065.218 11444.319)"/>
        <path id="prefix__Path_3879" d="M-4069.495-11399.992h-1.525a1.524 1.524 0 0 0-1.524 1.524v1.524h4.574v-1.524a1.525 1.525 0 0 0-1.525-1.524z" class="prefix__cls-1" data-name="Path 3879" transform="translate(4082.454 11421.336)"/>
    </g>
</svg>
