<svg xmlns="http://www.w3.org/2000/svg" width="16.849" height="16.849" viewBox="0 0 16.849 16.849">
    <path id="prefix__Path_2384" fill="#1e85b3" fill-rule="evenodd" d="M-3347.9-9931.91a7.992 7.992 0 0 0-5.669 2.349 7.992 7.992 0 0 0-2.348 5.669 8 8 0 0 0 2.348 5.67 8 8 0 0 0 5.669 2.35 8 8 0 0 0 5.67-2.35 8 8 0 0 0 2.349-5.67 7.992 7.992 0 0 0-2.349-5.669 7.991 7.991 0 0 0-5.67-2.349zm-.871 9.2a.2.2 0 0 1-.288 0 .2.2 0 0 1 0-.287l.51-.509-3.313-2.476a.2.2 0 0 1-.041-.283l.594-.8a.2.2 0 0 1 .285-.042l2.76 2.062-.052-.37a.2.2 0 0 1 .173-.229.2.2 0 0 1 .229.173l.105.766.259.2 3.4-3.4a.2.2 0 0 1 .287 0 .2.2 0 0 1 0 .286l-3.36 3.361.43.319a.206.206 0 0 1 .042.286l-.595.795a.2.2 0 0 1-.2.078l.587 4.229a.2.2 0 0 1-.173.229.2.2 0 0 1-.229-.175l-.639-4.595-.226-.169-.552.552zm1.225-.555l-.565-.422-.012-.009-3.332-2.49.351-.47 3.447 2.575.013.009.449.337-.351.47zm4.261-5.242a6.507 6.507 0 0 1 .814.991 6.528 6.528 0 0 1 .6 1.126 6.569 6.569 0 0 1 .368 1.22 6.567 6.567 0 0 1 .124 1.276 6.579 6.579 0 0 1-.124 1.278 6.537 6.537 0 0 1-.368 1.219 6.457 6.457 0 0 1-.6 1.126 6.415 6.415 0 0 1-.8.98l-.01.01a6.543 6.543 0 0 1-.991.817 6.641 6.641 0 0 1-1.127.6 6.493 6.493 0 0 1-1.219.369 6.773 6.773 0 0 1-1.277.122 6.759 6.759 0 0 1-1.276-.122 6.491 6.491 0 0 1-1.22-.369 6.562 6.562 0 0 1-1.126-.6 6.559 6.559 0 0 1-.981-.806l-.01-.012a6.431 6.431 0 0 1-.815-.99 6.434 6.434 0 0 1-.6-1.126 6.58 6.58 0 0 1-.369-1.219 6.6 6.6 0 0 1-.124-1.278 6.568 6.568 0 0 1 .124-1.275 6.577 6.577 0 0 1 .369-1.221 6.5 6.5 0 0 1 .6-1.126 6.459 6.459 0 0 1 .814-.991 6.571 6.571 0 0 1 .991-.815 6.566 6.566 0 0 1 1.127-.6 6.5 6.5 0 0 1 1.22-.369 6.669 6.669 0 0 1 1.275-.123 6.674 6.674 0 0 1 1.276.123 6.347 6.347 0 0 1 1.211.365h.009a6.618 6.618 0 0 1 1.128.6 6.691 6.691 0 0 1 .99.815zm-.765-1.15a7 7 0 0 1 1.053.863 6.968 6.968 0 0 1 .863 1.051 6.789 6.789 0 0 1 .641 1.2 6.854 6.854 0 0 1 .393 1.3 7.006 7.006 0 0 1 .133 1.354 7.026 7.026 0 0 1-.133 1.355 6.854 6.854 0 0 1-.393 1.3 6.965 6.965 0 0 1-.641 1.2 7.122 7.122 0 0 1-.853 1.042l-.01.01a6.964 6.964 0 0 1-1.054.864 6.888 6.888 0 0 1-1.2.642 6.957 6.957 0 0 1-1.3.393 6.972 6.972 0 0 1-1.356.133 6.952 6.952 0 0 1-1.354-.133 6.931 6.931 0 0 1-1.3-.393 6.9 6.9 0 0 1-1.2-.642 6.971 6.971 0 0 1-1.043-.853l-.011-.012a6.94 6.94 0 0 1-.865-1.053 7 7 0 0 1-.641-1.2 6.937 6.937 0 0 1-.393-1.3 6.951 6.951 0 0 1-.132-1.354 6.949 6.949 0 0 1 .132-1.354 6.906 6.906 0 0 1 .393-1.3 6.939 6.939 0 0 1 .641-1.2 7.01 7.01 0 0 1 .865-1.051 6.957 6.957 0 0 1 1.052-.863 6.933 6.933 0 0 1 1.2-.643 7.017 7.017 0 0 1 1.3-.392 6.937 6.937 0 0 1 1.352-.133 6.964 6.964 0 0 1 1.354.133 6.858 6.858 0 0 1 1.287.388h.011a6.871 6.871 0 0 1 1.2.643zm-9.805-.192a8.4 8.4 0 0 1 5.957-2.469 8.4 8.4 0 0 1 5.957 2.469 8.4 8.4 0 0 1 2.468 5.956 8.4 8.4 0 0 1-2.468 5.957 8.4 8.4 0 0 1-5.957 2.467 8.4 8.4 0 0 1-5.957-2.467 8.4 8.4 0 0 1-2.468-5.957 8.4 8.4 0 0 1 2.466-5.956z" data-name="Path 2384" transform="translate(3356.324 9932.317)"/>
</svg>
