<svg xmlns="http://www.w3.org/2000/svg" width="17.257" height="17.257" viewBox="0 0 17.257 17.257">
    <defs>
        <style>
            .cls-1{fill:#4d4d4d}
        </style>
    </defs>
    <g id="Group_2184" transform="translate(-1243.236 -675.654)">
        <path id="Path_3959" d="M4051.825-898.612a8.588 8.588 0 0 0 .632-3.247 8.587 8.587 0 0 0-.632-3.247 8.558 8.558 0 0 0-1.895-2.855 8.579 8.579 0 0 0-2.855-1.9 8.6 8.6 0 0 0-3.247-.632 8.6 8.6 0 0 0-3.247.632 8.574 8.574 0 0 0-2.855 1.9 8.576 8.576 0 0 0-1.9 2.855 8.6 8.6 0 0 0-.631 3.247 8.6 8.6 0 0 0 .631 3.247 8.576 8.576 0 0 0 1.9 2.855 8.571 8.571 0 0 0 2.855 1.9 8.6 8.6 0 0 0 3.247.632 8.6 8.6 0 0 0 3.247-.632 8.575 8.575 0 0 0 2.855-1.9 8.558 8.558 0 0 0 1.895-2.855zm-12.914 1.671a6.963 6.963 0 0 1 0-9.835 6.963 6.963 0 0 1 9.835 0 6.962 6.962 0 0 1 0 9.835 6.963 6.963 0 0 1-9.835 0z" class="cls-1" transform="translate(-2791.964 1586.141)"/>
        <path id="Path_3960" d="M4055.567-894.389a.5.5 0 0 0 .145-.349v-.394a.494.494 0 0 0-.494-.494h-3.775v-3.774a.494.494 0 0 0-.494-.493h-.395a.494.494 0 0 0-.494.493v3.775h-3.775a.494.494 0 0 0-.494.494v.394a.494.494 0 0 0 .145.349.492.492 0 0 0 .349.145h3.775v3.775a.5.5 0 0 0 .145.349.494.494 0 0 0 .349.145h.395a.494.494 0 0 0 .349-.145.5.5 0 0 0 .145-.349v-3.775h3.775a.5.5 0 0 0 .349-.146z" class="cls-1" transform="translate(-2798.887 1579.218)"/>
    </g>
</svg>
