<svg xmlns="http://www.w3.org/2000/svg" width="19.377" height="19.377" viewBox="0 0 19.377 19.377">
    <defs>
        <style>
            .cls-1{fill:#666}
        </style>
    </defs>
    <g id="Group_2181" transform="translate(-725.469 -422.428)">
        <path id="Path_3950" d="M2557.944-1625.425l-.645 3.141a.271.271 0 0 0 .316.317l3.142-.644.137-.074 6.757-6.757a.136.136 0 0 0 0-.192l-2.686-2.686a.135.135 0 0 0-.192 0l-6.757 6.757-.072.138z" class="cls-1" transform="translate(-1826.012 2057.953)"/>
        <path id="Path_3951" d="M2557.564-1626.217h-1.164a.388.388 0 0 0-.388.388v5.426h-13.562v-13.564h4.457a.388.388 0 0 0 .388-.388v-1.163a.388.388 0 0 0-.388-.387h-5.426a.969.969 0 0 0-.969.969v15.5a.969.969 0 0 0 .969.969h15.5a.969.969 0 0 0 .969-.969v-6.395a.388.388 0 0 0-.386-.386z" class="cls-1" transform="translate(-1815.043 2060.271)"/>
        <path id="Path_3952" d="M2587.669-1639.383l-1.918-1.918a.678.678 0 0 0-.959 0l-1.416 1.417a.193.193 0 0 0 0 .273l2.6 2.6a.194.194 0 0 0 .274 0l1.416-1.416a.678.678 0 0 0 .003-.956z" class="cls-1" transform="translate(-1843.021 2063.927)"/>
    </g>
</svg>
