<svg xmlns="http://www.w3.org/2000/svg" width="19.786" height="11.573" viewBox="0 0 19.786 11.573">
    <defs>
        <style>
            .prefix__cls-1{fill:#0071bc}
        </style>
    </defs>
    <g id="prefix__Group_5" data-name="Group 5">
        <path id="prefix__Path_3358" d="M8439.688-9451.928c-5.1 0-8.555 3.4-8.555 4.528 0 .905 3.313 4.528 8.555 4.528 5.145 0 8.552-3.225 8.552-4.528-.001-1.163-3.36-4.528-8.552-4.528zm0 1.152a2.705 2.705 0 0 1 2.771 2.628 2.7 2.7 0 0 1-2.771 2.625 2.7 2.7 0 0 1-2.773-2.625 2.707 2.707 0 0 1 2.773-2.627zm0 6.9a9.4 9.4 0 0 1-7.532-3.529 8.428 8.428 0 0 1 4.67-3.107 3.527 3.527 0 0 0-.919 2.367 3.713 3.713 0 0 0 3.781 3.631 3.713 3.713 0 0 0 3.779-3.631 3.536 3.536 0 0 0-.948-2.4c3.041.828 4.654 2.776 4.716 3.138-.071.596-2.806 3.529-7.547 3.529z" class="prefix__cls-1" data-name="Path 3358" transform="translate(-8429.794 9451.928)"/>
        <g id="prefix__Group_1671" data-name="Group 1671">
            <path id="prefix__Path_3359" d="M8439.428-9451.928c-5.17 0-8.672 3.357-8.672 4.476 0 .894 3.358 4.472 8.672 4.472 5.215 0 8.67-3.184 8.67-4.472.002-1.153-3.408-4.476-8.67-4.476zm0 7.942a9.7 9.7 0 0 1-7.648-3.476 9.505 9.505 0 0 1 7.648-3.461c4.689 0 7.545 2.821 7.665 3.457-.08.589-2.885 3.481-7.665 3.481z" class="prefix__cls-1" data-name="Path 3359" transform="translate(-8429.544 9451.928)"/>
            <g id="prefix__Group_1664" data-name="Group 1664" transform="translate(9.38 9.676)">
                <path id="prefix__Path_3360" d="M8455.041-9421.769a.505.505 0 0 0 .5.5.5.5 0 0 0 .5-.5v-.889a.5.5 0 0 0-.5-.5.5.5 0 0 0-.5.5z" class="prefix__cls-1" data-name="Path 3360" transform="translate(-8455.041 9423.16)"/>
                <path id="prefix__Path_3361" d="M8455.041-9421.769a.505.505 0 0 0 .5.5.5.5 0 0 0 .5-.5v-.889a.5.5 0 0 0-.5-.5.5.5 0 0 0-.5.5z" class="prefix__cls-1" data-name="Path 3361" transform="translate(-8455.041 9423.16)"/>
            </g>
            <g id="prefix__Group_1665" data-name="Group 1665" transform="translate(12.522 9.309)">
                <path id="prefix__Path_3362" d="M8464.747-9424.231a.506.506 0 0 0-.344.623l.249.866a.506.506 0 0 0 .623.343.5.5 0 0 0 .344-.623l-.248-.864a.506.506 0 0 0-.624-.345z" class="prefix__cls-1" data-name="Path 3362" transform="translate(-8464.384 9424.251)"/>
                <path id="prefix__Path_3363" d="M8464.747-9424.231a.506.506 0 0 0-.344.623l.249.866a.506.506 0 0 0 .623.343.5.5 0 0 0 .344-.623l-.248-.864a.506.506 0 0 0-.624-.345z" class="prefix__cls-1" data-name="Path 3363" transform="translate(-8464.384 9424.251)"/>
            </g>
            <g id="prefix__Group_1666" data-name="Group 1666" transform="translate(15.632 8.04)">
                <path id="prefix__Path_3364" d="M8473.828-9427.926a.506.506 0 0 0-.1.705l.566.749a.5.5 0 0 0 .705.1.5.5 0 0 0 .1-.705l-.565-.748a.5.5 0 0 0-.7-.1z" class="prefix__cls-1" data-name="Path 3364" transform="translate(-8473.628 9428.026)"/>
                <path id="prefix__Path_3365" d="M8473.828-9427.926a.506.506 0 0 0-.1.705l.566.749a.5.5 0 0 0 .705.1.5.5 0 0 0 .1-.705l-.565-.748a.5.5 0 0 0-.7-.1z" class="prefix__cls-1" data-name="Path 3365" transform="translate(-8473.628 9428.026)"/>
            </g>
            <g id="prefix__Group_1667" data-name="Group 1667" transform="translate(17.951 6.248)">
                <path id="prefix__Path_3366" d="M8481.3-9433.272a.505.505 0 0 0-.7.146.507.507 0 0 0 .147.7l.829.54a.506.506 0 0 0 .7-.147.5.5 0 0 0-.148-.7z" class="prefix__cls-1" data-name="Path 3366" transform="translate(-8480.523 9433.354)"/>
                <path id="prefix__Path_3367" d="M8481.3-9433.272a.505.505 0 0 0-.7.146.507.507 0 0 0 .147.7l.829.54a.506.506 0 0 0 .7-.147.5.5 0 0 0-.148-.7z" class="prefix__cls-1" data-name="Path 3367" transform="translate(-8480.523 9433.354)"/>
            </g>
            <g id="prefix__Group_1668" data-name="Group 1668" transform="translate(6.007 9.309)">
                <path id="prefix__Path_3368" d="M8445.032-9423.022a.5.5 0 0 0 .342.623.506.506 0 0 0 .624-.343l.249-.866a.5.5 0 0 0-.343-.623.505.505 0 0 0-.624.345z" class="prefix__cls-1" data-name="Path 3368" transform="translate(-8445.013 9424.251)"/>
                <path id="prefix__Path_3369" d="M8445.032-9423.022a.5.5 0 0 0 .342.623.506.506 0 0 0 .624-.343l.249-.866a.5.5 0 0 0-.343-.623.505.505 0 0 0-.624.345z" class="prefix__cls-1" data-name="Path 3369" transform="translate(-8445.013 9424.251)"/>
            </g>
            <g id="prefix__Group_1669" data-name="Group 1669" transform="translate(2.582 8.04)">
                <path id="prefix__Path_3370" d="M8434.929-9427.077a.5.5 0 0 0 .1.705.5.5 0 0 0 .7-.1l.566-.749a.505.505 0 0 0-.1-.705.5.5 0 0 0-.7.1z" class="prefix__cls-1" data-name="Path 3370" transform="translate(-8434.828 9428.026)"/>
                <path id="prefix__Path_3371" d="M8434.929-9427.077a.5.5 0 0 0 .1.705.5.5 0 0 0 .7-.1l.566-.749a.505.505 0 0 0-.1-.705.5.5 0 0 0-.7.1z" class="prefix__cls-1" data-name="Path 3371" transform="translate(-8434.828 9428.026)"/>
            </g>
            <g id="prefix__Group_1670" data-name="Group 1670" transform="translate(0 6.248)">
                <path id="prefix__Path_3372" d="M8427.381-9432.732a.505.505 0 0 0-.147.7.507.507 0 0 0 .7.147l.828-.54a.507.507 0 0 0 .147-.7.505.505 0 0 0-.7-.146z" class="prefix__cls-1" data-name="Path 3372" transform="translate(-8427.153 9433.354)"/>
                <path id="prefix__Path_3373" d="M8427.381-9432.732a.505.505 0 0 0-.147.7.507.507 0 0 0 .7.147l.828-.54a.507.507 0 0 0 .147-.7.505.505 0 0 0-.7-.146z" class="prefix__cls-1" data-name="Path 3373" transform="translate(-8427.153 9433.354)"/>
            </g>
        </g>
    </g>
</svg>
