<svg xmlns="http://www.w3.org/2000/svg" id="prefix__Group_3" width="25.211" height="25.661" data-name="Group 3" viewBox="0 0 25.211 25.661">
    <defs>
        <clipPath id="prefix__clip-path">
            <path id="prefix__Path_3249" fill="none" d="M7726.11-9633.459h-25.21v-18.008l12.6-7.653 12.606 7.653z" data-name="Path 3249" transform="translate(-7700.899 9659.12)"/>
        </clipPath>
    </defs>
    <g id="prefix__Group_1604" clip-path="url(#prefix__clip-path)" data-name="Group 1604">
        <path id="prefix__Path_3246" fill="#0071bc" d="M7726.11-9634.178a1.807 1.807 0 0 1-1.8 1.8h-21.61a1.806 1.806 0 0 1-1.8-1.8v-14.405a3.556 3.556 0 0 1 1.539-2.734l9.527-5.786a3.272 3.272 0 0 1 3.078 0l9.528 5.786a3.557 3.557 0 0 1 1.54 2.734z" data-name="Path 3246" transform="translate(-7700.899 9658.037)"/>
        <path id="prefix__Path_3247" fill="#d8d8d8" d="M7726.542-9629.555l-9.472 5.877a1.965 1.965 0 0 1-.9.191 1.969 1.969 0 0 1-.9-.191l-9.471-5.877a2.113 2.113 0 0 1-.881-1.514h22.509a2.117 2.117 0 0 1-.885 1.514z" data-name="Path 3247" transform="translate(-7703.564 9640.504)"/>
        <path id="prefix__Path_3248" fill="#fff" d="M7726.542-9647.487l-9.472-5.877a1.978 1.978 0 0 0-.9-.191 1.981 1.981 0 0 0-.9.191l-9.471 5.877a2.117 2.117 0 0 0-.881 1.514h22.509a2.12 2.12 0 0 0-.885-1.514z" data-name="Path 3248" transform="translate(-7703.564 9655.428)"/>
    </g>
</svg>
